<svg xmlns="http://www.w3.org/2000/svg" xmlns:xlink="http://www.w3.org/1999/xlink" width="20" height="20" viewBox="0 0 20 20">
  <defs>
    <clipPath id="clip-path">
      <rect id="Rectangle_400" data-name="Rectangle 400" width="20" height="20" transform="translate(925 959)" fill="#fff" stroke="#707070" stroke-width="1" opacity="0.666"/>
    </clipPath>
  </defs>
  <g id="Mask_Group_6" data-name="Mask Group 6" transform="translate(-925 -959)" opacity="0.803" clip-path="url(#clip-path)">
    <g id="brazil" transform="translate(926.097 959)">
      <path id="Path_556" data-name="Path 556" d="M18.849,13.264a2.491,2.491,0,0,1-.988,1.846l-6.927,4.617a1.931,1.931,0,0,1-1.977,0L2.03,15.11a2.487,2.487,0,0,1-.988-1.846V6.736A2.491,2.491,0,0,1,2.03,4.889L8.957.272a1.933,1.933,0,0,1,1.977,0L17.86,4.889a2.49,2.49,0,0,1,.988,1.847v6.528" transform="translate(-1.042 0)" fill="#2b9e41"/>
      <path id="Path_557" data-name="Path 557" d="M6.5,10.508l.028.094h.095l-.075.058.028.093L6.5,10.695l-.076.058.029-.094L6.381,10.6h.094l.029-.094" transform="translate(-0.761 0.553)" fill="#f9fdfe"/>
      <path id="Path_558" data-name="Path 558" d="M2.324,9.774Q6.1,7.03,9.877,4.29q3.777,2.74,7.554,5.484L9.877,15.259Q6.1,12.517,2.324,9.774" transform="translate(-0.975 0.226)" fill="#f7df0d"/>
      <path id="Path_559" data-name="Path 559" d="M13.308,9.681A3.627,3.627,0,1,1,9.681,6.053a3.628,3.628,0,0,1,3.627,3.628" transform="translate(-0.778 0.318)" fill="#26326f"/>
      <path id="Path_560" data-name="Path 560" d="M13.287,10.193l-.152.584A8.468,8.468,0,0,0,6.121,8.715l.209-.606a8.852,8.852,0,0,1,6.956,2.084" transform="translate(-0.775 0.423)" fill="#fff"/>
      <path id="Path_561" data-name="Path 561" d="M10.823,8.287l.035.111h.115l-.092.07.035.112-.092-.07-.093.07.035-.113-.093-.07h.115l.036-.112m1.433,2.425.036.112h.115l-.094.07.037.112-.094-.069-.093.069.036-.112-.094-.07h.115l.035-.112m-2.512.338.036.112H9.9l-.092.069.035.112-.094-.069-.092.069.036-.112-.094-.069H9.71l.036-.113m1.891.725.03.094h.1l-.079.059.03.094-.078-.058-.079.058.031-.094-.079-.059h.1l.03-.094m.516-.5.031.094h.1l-.079.059.03.095-.079-.059-.078.059.03-.095-.078-.059h.1l.03-.094m.165-.207.029.095h.1l-.078.058.03.094-.078-.059-.08.059.03-.094-.079-.058h.1l.031-.095M10.626,9.328l.025.078h.081l-.066.048.026.08-.067-.049-.064.049.024-.08-.066-.048h.08l.026-.078m-.932.649.03.092h.092l-.074.056.028.092-.076-.057-.075.057.029-.092-.075-.056h.092l.029-.092M8.386,9.569l.029.092h.092l-.075.057.03.093-.075-.058-.075.058.029-.093-.075-.056h.093l.03-.093m-1.337.675.036.118H7.2l-.1.073.036.117-.094-.073-.1.073.038-.117-.1-.072h.118l.037-.117M6.7,8.733l.037.117h.118l-.1.072.036.117L6.7,8.967l-.1.073.037-.117-.095-.073h.117L6.7,8.732m1.614,2.631.035.113h.115l-.094.069.037.112-.093-.069-.092.069.035-.112-.092-.07h.114l.036-.113m1.811-1,.029.092h.094l-.076.057.029.091-.075-.056-.076.056.029-.091-.075-.057H10.1l.029-.092m.744,1.6.025.079h.082l-.067.048.026.079-.066-.05-.064.05.025-.08-.066-.048h.08l.025-.079m.22-.5.026.079H11.2l-.066.049.025.078-.066-.048-.066.048.026-.078-.066-.049h.08l.025-.08M9.369,10.345l.026.078h.081l-.066.049.026.079L9.369,10.5l-.064.048.024-.079-.065-.049h.081l.024-.078M7.4,10.078l.021.066h.067l-.055.042.022.067L7.4,10.211l-.055.041.022-.067-.054-.042h.068l.021-.066m4.238,1.385.025.079h.082l-.066.049.024.078-.066-.048-.065.048.026-.078-.066-.049h.081l.025-.08m0,.618.023.068h.069l-.058.042.023.069-.058-.043-.056.042.022-.068-.057-.042h.07l.021-.068M7.782,10.593l.027.091H7.9l-.074.056.028.09-.073-.056-.074.056.027-.09-.073-.056h.09l.029-.091m1.845.044.022.068h.07l-.057.043.022.068-.056-.042-.057.042.02-.068-.056-.042h.07l.023-.069m-1.943.434.022.069h.07l-.058.042.023.068-.057-.042-.057.042.022-.068-.058-.042h.07l.023-.069m5.056-.288.023.068h.069l-.056.043.022.068-.056-.042-.057.042.022-.068-.057-.043h.07l.022-.068m-.835.68.025.079h.081l-.066.049.026.078-.066-.048-.066.048.025-.078-.066-.049h.081l.025-.08m-1.341-.021.026.079h.081l-.066.049.025.078-.066-.049-.066.049.024-.078-.065-.049h.082l.024-.08m-.838.79.011.038h.039l-.031.023.012.038-.03-.023-.031.023.012-.038-.03-.023h.037l.012-.038" transform="translate(-0.752 0.436)" fill="#f9fdfe"/>
      <path id="Path_562" data-name="Path 562" d="M6.615,8.338l.015-.083.032-.045.044-.029.075-.013.122.045.046.123L6.9,8.46,6.782,8.5,6.661,8.46Zm.072,0,.026.084.068.028.069-.028.026-.084-.025-.083-.07-.028-.069.028-.025.083m3.638.567.016-.084.031-.043.045-.03.074-.012.122.045.045.123-.045.122-.121.045-.122-.044Zm.072,0,.026.083.069.028.068-.028.028-.084-.027-.083-.068-.027-.069.027L10.4,8.9M7.081,8.492V8.154h.171l.094.009.047.032.016.054-.026.062L7.3,8.343l.044.029.046.055.049.066h-.1l-.058-.073-.044-.05L7.22,8.354l-.042,0H7.163v.141Zm.082-.2h.061l.072,0,.023-.014.007-.026-.009-.027-.032-.014H7.163V8.3m2.717.566.108-.32.162.053.085.038.035.046v.056l-.045.051-.086,0,.032.041L10.2,8.9l.026.077-.094-.03-.03-.089L10.074,8.8l-.019-.021-.038-.017-.015,0-.045.134Zm.139-.159.057.019.071.019.026-.007.016-.022,0-.03-.024-.022-.056-.02-.061-.021-.027.082m1.1.635.158-.3.151.08.079.052.024.051-.008.055-.052.043-.084-.009.024.045.016.07.011.081-.085-.045-.018-.093L11.319,9.3,11.3,9.282l-.033-.023-.015-.007-.066.125Zm.163-.134.053.028.067.03.027,0,.019-.018,0-.03-.021-.025-.052-.029-.056-.03-.04.076M7.535,8.159h.142l.072.007.057.032.038.054.012.081L7.844,8.4l-.041.06-.054.027L7.681,8.5H7.535Zm.077.058v.225h.059l.046,0,.031-.014.02-.033.008-.062-.008-.061-.022-.032L7.711,8.22l-.064,0H7.612m.365.294.014-.34.281.012,0,.058-.2-.009,0,.075.191.008v.058l-.191-.009,0,.093.213.009,0,.058-.289-.012M11.5,9.54l.159-.3.249.131-.028.051-.181-.1-.034.068.169.088-.028.052-.168-.089-.042.082.187.1-.026.052L11.5,9.54M9.019,8.65l.052-.278.23.044-.008.047-.168-.031-.011.061.155.03-.008.047L9.1,8.54l-.014.075.174.034-.009.046L9.019,8.65m-.63-.1.039-.338.1.012.034.237.089-.223.1.012-.039.339-.066-.007.031-.267-.1.258-.068-.007-.036-.275-.03.267L8.39,8.553m4.2,1.537.045-.072.047-.03.052-.009.073.015.1.087,0,.132-.089.1-.128,0-.1-.087Zm.066.024,0,.088.052.052h.075l.056-.069.007-.086-.055-.052h-.074l-.056.067m-.429-.285.066.037,0,.055.038.044.053.021.033-.016.006-.021-.014-.027-.042-.047L12.31,9.8l.009-.074.041-.03h.059l.066.033.073.084-.01.082-.064-.042,0-.042-.033-.036-.051-.02-.022.01v.023l.045.058.054.066.015.052-.017.052-.045.033H12.37l-.075-.038-.074-.087.008-.1m-.339-.213.065.038-.005.055.037.045.054.021.033-.015.006-.021-.014-.028-.043-.047-.053-.075.008-.075.041-.029h.058l.068.034.073.083-.011.082-.064-.042,0-.042-.034-.037-.049-.02-.023.009,0,.023.046.059.054.066.015.052-.019.052-.045.034H12.03L11.954,9.8l-.075-.087.011-.1m-1-.5.024-.051.142.066L11,9.248l-.075,0-.086-.023-.08-.062-.029-.084L10.751,9l.061-.075.089-.027.084.021.084.068.013.085-.07-.019L11,9l-.042-.035-.08-.007-.06.064-.012.093.055.059.044.012h.045l.018-.039-.076-.035M9.5,8.749l.111-.323.1.036.076.031.035.047,0,.07L9.8,8.655l-.039.023-.038,0-.069-.018-.042-.015-.042.122ZM9.658,8.5l-.031.093.035.011.054.013L9.74,8.61l.015-.022V8.555l-.022-.023-.045-.019L9.658,8.5" transform="translate(-0.749 0.429)" fill="#2b9e41"/>
    </g>
  </g>
</svg>
