<svg xmlns="http://www.w3.org/2000/svg" xmlns:xlink="http://www.w3.org/1999/xlink" width="20" height="20" viewBox="0 0 20 20">
  <defs>
    <clipPath id="clip-path">
      <rect id="Rectangle_400" data-name="Rectangle 400" width="20" height="20" transform="translate(925 920)" fill="#fff" stroke="#707070" stroke-width="1" opacity="0.666"/>
    </clipPath>
  </defs>
  <g id="Mask_Group_5" data-name="Mask Group 5" transform="translate(-925 -920)" opacity="0.803" clip-path="url(#clip-path)">
    <g id="india" transform="translate(926.097 920)">
      <path id="Path_549" data-name="Path 549" d="M1.042,6.406v6.528c0,.042.007.088.011.131H18.838c0-.044.01-.089.01-.131V6.406a1.31,1.31,0,0,0-.011-.133H1.053c0,.045-.011.09-.011.133" transform="translate(-1.042 0.33)" fill="#fff"/>
      <path id="Path_550" data-name="Path 550" d="M1.052,12.727A2.507,2.507,0,0,0,2.03,14.44l6.927,4.618a1.931,1.931,0,0,0,1.977,0l6.927-4.617a2.508,2.508,0,0,0,.977-1.714H1.052" transform="translate(-1.041 0.67)" fill="#2b8a3b"/>
      <path id="Path_551" data-name="Path 551" d="M8.956.272,2.03,4.889A2.511,2.511,0,0,0,1.052,6.6H18.837A2.508,2.508,0,0,0,17.86,4.89L10.933.272a1.931,1.931,0,0,0-1.977,0" transform="translate(-1.041 0)" fill="#f68b28"/>
      <path id="Path_552" data-name="Path 552" d="M9.64,6.827A2.812,2.812,0,1,1,6.828,9.64,2.812,2.812,0,0,1,9.64,6.827" transform="translate(-0.738 0.36)" fill="#282d78"/>
      <path id="Path_553" data-name="Path 553" d="M9.623,7.161A2.461,2.461,0,1,1,7.162,9.622,2.461,2.461,0,0,1,9.623,7.161" transform="translate(-0.72 0.377)" fill="#fff"/>
      <path id="Path_554" data-name="Path 554" d="M9.524,9.032a.492.492,0,1,1-.492.492.492.492,0,0,1,.492-.492m2.456.691a.123.123,0,1,1-.091.024.123.123,0,0,1,.091-.024" transform="translate(-0.621 0.476)" fill="#282d78"/>
      <path id="Path_555" data-name="Path 555" d="M9.628,12.088l.084-1.477-.084-.7-.084.7.084,1.477m2.321-1.633a.122.122,0,1,1-.094,0,.122.122,0,0,1,.094,0M8.991,12l.464-1.4.1-.7-.263.658L8.991,12m2.664-.977a.123.123,0,1,1-.172.023.123.123,0,0,1,.172-.023M8.4,11.759l.812-1.237.278-.651-.424.567L8.4,11.759m2.826-.254a.123.123,0,1,1-.172-.023.123.123,0,0,1,.172.023m-3.336-.137,1.1-.984.437-.557-.557.437-.984,1.1m2.8.486a.123.123,0,1,1-.161-.067.123.123,0,0,1,.161.067m-3.187-1,1.321-.665.567-.425-.652.279L7.5,10.858m2.575,1.193a.123.123,0,1,1-.047-.082.123.123,0,0,1,.047.082m-2.82-1.786,1.448-.3L9.356,9.7l-.7.1-1.4.464m2.177,1.818a.123.123,0,1,1-.106-.138.123.123,0,0,1,.106.138M7.167,9.627l1.477.084.7-.084-.7-.084-1.477.084M8.8,11.948a.123.123,0,1,1-.069-.156.123.123,0,0,1,.069.156M7.251,8.99l1.4.464.7.1L8.7,9.291,7.25,8.99m.977,2.665a.123.123,0,1,1-.027-.166.123.123,0,0,1,.027.166M7.5,8.4l1.237.811.651.278-.567-.425L7.5,8.4m.254,2.826a.123.123,0,1,1,.047-.082.123.123,0,0,1-.047.082m.137-3.336.985,1.1.557.437-.437-.557-1.1-.984m-.487,2.8a.123.123,0,1,1,.062-.159.123.123,0,0,1-.062.159M8.4,7.5l.666,1.321.424.567-.278-.651L8.4,7.5M7.2,10.071a.123.123,0,1,1,.1-.137.123.123,0,0,1-.1.137M8.991,7.25l.3,1.448.264.658-.1-.7L8.99,7.25M7.172,9.429a.124.124,0,1,1,.13-.107.124.124,0,0,1-.13.107M9.628,7.167,9.543,8.643l.084.7.084-.7L9.628,7.167M7.307,8.8a.123.123,0,1,1,.161-.067.123.123,0,0,1-.161.067m2.958-1.55L9.8,8.655l-.1.7L9.964,8.7l.3-1.448M7.6,8.227A.123.123,0,1,1,7.772,8.2a.123.123,0,0,1-.172.022m3.258-.73-.811,1.237-.279.651.425-.567.666-1.32M8.032,7.75a.123.123,0,1,1,.172.023.123.123,0,0,1-.172-.023m3.336.137-1.1.984-.438.557.556-.437.984-1.1M8.572,7.4a.123.123,0,1,1,.161.066A.123.123,0,0,1,8.572,7.4m3.187,1-1.32.665-.567.425.652-.278L11.759,8.4M9.185,7.2a.123.123,0,1,1,.138.106A.123.123,0,0,1,9.185,7.2M12,8.99l-1.448.3L9.9,9.555l.7-.1L12,8.99M9.827,7.172a.123.123,0,1,1,.106.138.123.123,0,0,1-.106-.138m2.262,2.456-1.477-.084-.7.084.7.084,1.477-.084M10.456,7.307a.123.123,0,1,1,.068.156.123.123,0,0,1-.068-.156M12,10.265,10.6,9.8l-.7-.1.657.263,1.448.3M11.028,7.6A.122.122,0,1,1,11,7.691a.123.123,0,0,1,.025-.091m.731,3.258-1.237-.811-.652-.279.567.425,1.321.665m-.254-2.826a.123.123,0,1,1-.022.173.123.123,0,0,1,.022-.173m-.137,3.336-.984-1.1-.557-.437.438.557,1.1.984m.486-2.8a.123.123,0,1,1-.067.067.122.122,0,0,1,.067-.067m-1,3.187-.665-1.322-.425-.567.278.652.811,1.236m1.193-2.574a.123.123,0,1,1-.082.047.123.123,0,0,1,.082-.047M10.265,12l-.3-1.448L9.7,9.9l.1.7.464,1.4" transform="translate(-0.725 0.372)" fill="#282d78"/>
    </g>
  </g>
</svg>
