<svg xmlns="http://www.w3.org/2000/svg" xmlns:xlink="http://www.w3.org/1999/xlink" width="20" height="20" viewBox="0 0 20 20">
  <defs>
    <clipPath id="clip-path">
      <rect id="Rectangle_400" data-name="Rectangle 400" width="20" height="20" transform="translate(925 842)" fill="#fff" stroke="#707070" stroke-width="1" opacity="0.666"/>
    </clipPath>
  </defs>
  <g id="Mask_Group_3" data-name="Mask Group 3" transform="translate(-925 -842)" opacity="0.803" clip-path="url(#clip-path)">
    <g id="spain" transform="translate(926.096 842)">
      <path id="Path_370" data-name="Path 370" d="M1.041,6.486v6.529a2.51,2.51,0,0,0,.85,1.736H18a2.512,2.512,0,0,0,.85-1.736V6.486A2.513,2.513,0,0,0,18,4.75H1.891a2.512,2.512,0,0,0-.85,1.736" transform="translate(-1.041 0.25)" fill="#fbc009"/>
      <path id="Path_371" data-name="Path 371" d="M1.988,4.89,1.848,5H17.957l-.139-.11L10.891.271a1.938,1.938,0,0,0-1.977,0L1.988,4.89m0,10.22,6.926,4.619a1.937,1.937,0,0,0,1.977,0l6.926-4.619.139-.11H1.848l.139.11" transform="translate(-0.998 0)" fill="#c71e25"/>
      <path id="Path_372" data-name="Path 372" d="M3.572,8.514l-.029,0L3.5,8.472l-.025-.019L3.45,8.421,3.435,8.34l.054-.056.061-.024.041-.014.049-.012.022-.009L3.7,8.216l.041-.01.064.005.061,0,.082-.005h.044l.056.015.081.029.087.024.044.044.02.039V8.4l-.02.031-.024.039L4.207,8.5l-.039.017a2.463,2.463,0,0,0-.3-.032,2.234,2.234,0,0,0-.291.031" transform="translate(-0.915 0.432)" fill="#ac1d23"/>
      <path id="Path_373" data-name="Path 373" d="M3.846,8.171l.051.1-.051.095-.054-.095.054-.1" transform="translate(-0.896 0.43)" fill="#bfb119"/>
      <path id="Path_374" data-name="Path 374" d="M3.845,8.178l.024.088-.025.087L3.82,8.266l.024-.087" transform="translate(-0.895 0.43)" fill="#bfb119"/>
      <path id="Path_375" data-name="Path 375" d="M3.845,8.134l.036.034L3.845,8.2l-.034-.031.034-.034" transform="translate(-0.895 0.428)" fill="#bfb119"/>
      <path id="Path_376" data-name="Path 376" d="M3.907,8.159v.022H3.812V8.159h.037V8.11H3.825V8.086h.024V8.067h.022v.019H3.9v.025H3.871v.048h.037m-.049.357H3.676l0-.047-.01-.046-.009-.059c-.049-.066-.1-.109-.112-.1l.017-.027c.046-.027.139.037.207.142l.019.029h.149l.019-.029c.069-.1.161-.169.2-.142l.019.027c-.017-.009-.061.034-.114.1l-.007.059-.01.046,0,.047H3.859M3.59,8.6l-.022-.039a1.162,1.162,0,0,1,.583,0l-.019.034-.015.029a.944.944,0,0,0-.259-.029.908.908,0,0,0-.261.031L3.59,8.6" transform="translate(-0.909 0.425)" fill="#bfb119"/>
      <path id="Path_377" data-name="Path 377" d="M3.858,8.672a1.1,1.1,0,0,0,.231-.025l.039-.031L4.114,8.6a1.132,1.132,0,0,0-.512,0l-.013.014.037.031a1.055,1.055,0,0,0,.231.025m.3-.176-.022-.022-.049.009-.037-.036-.054.024-.041-.025L3.9,8.465l-.046-.031-.046.034-.044-.022-.039.029L3.67,8.45l-.039.034-.046-.009-.007.014L3.564,8.5l.008.019a1.067,1.067,0,0,1,.286-.034,1.072,1.072,0,0,1,.291.034L4.155,8.5" transform="translate(-0.908 0.444)" fill="#bfb119"/>
      <path id="Path_378" data-name="Path 378" d="M3.864,8.4l.009,0,0,.015.042.039.041-.027,0-.014,0,.017L4,8.462l.044-.039,0-.005.014-.013.007.015,0,.019.041.038.034-.017.007-.009v.012l.019.026L4.2,8.476l.029-.029,0,.014-.036.044-.037.008L4.13,8.491,4.1,8.5l-.053-.032L4,8.486l-.049-.024-.041.017-.051-.027-.049.027-.044-.017-.047.025-.044-.02L3.625,8.5l-.032-.007-.027.022-.034-.008-.039-.044,0-.014.031.029.034.012.017-.027V8.449l.009.01.034.017.039-.038,0-.019.008-.015.012.012v.005l.041.039.041-.031,0-.017.007.014.039.027.041-.039V8.4l.01,0h0" transform="translate(-0.912 0.442)" fill="#bfb119"/>
      <path id="Path_379" data-name="Path 379" d="M3.865,8.5a1.058,1.058,0,0,0-.291.036L3.56,8.532l.008-.012a1.133,1.133,0,0,1,.3-.036,1.1,1.1,0,0,1,.3.037l.007.012-.012.007A1.073,1.073,0,0,0,3.865,8.5m-.388-.046L3.45,8.429l-.025-.014.023-.01.017.008V8.405l.014.013v.027l0,.012m.071-.03,0,.025-.054,0-.008,0,0-.007.039-.034.024.017" transform="translate(-0.915 0.442)" fill="#bfb119"/>
      <path id="Path_380" data-name="Path 380" d="M3.475,8.448l.019,0,.006.019-.022,0,0-.019m.1,0,0-.017.014.01,0,.017-.014-.01M3.6,8.421l.019.017.046-.024,0-.007L3.66,8.4l-.053-.005-.01.027" transform="translate(-0.913 0.442)" fill="#bfb119"/>
      <path id="Path_381" data-name="Path 381" d="M3.643,8.336l-.025.024L3.65,8.4l.007,0L3.665,8.4l.012-.054-.034-.012" transform="translate(-0.905 0.439)" fill="#bfb119"/>
      <path id="Path_382" data-name="Path 382" d="M3.726,8.392l-.007.024-.056-.005,0-.005,0-.009.046-.025.02.02" transform="translate(-0.903 0.441)" fill="#bfb119"/>
      <path id="Path_383" data-name="Path 383" d="M3.658,8.39l.017.017-.017.018-.019-.018.019-.017m.087.027.01-.015.01.013-.007.017-.013-.014m.038-.027.014.022L3.849,8.4l0-.008-.008-.007L3.8,8.368l-.015.022" transform="translate(-0.904 0.44)" fill="#bfb119"/>
      <path id="Path_384" data-name="Path 384" d="M3.845,8.315l-.034.019.024.051.01.007.009-.007.022-.051-.031-.019" transform="translate(-0.895 0.438)" fill="#bfb119"/>
      <path id="Path_385" data-name="Path 385" d="M3.914,8.39,3.9,8.412,3.848,8.4l0-.008,0-.007L3.9,8.368l.015.022" transform="translate(-0.893 0.44)" fill="#bfb119"/>
      <path id="Path_386" data-name="Path 386" d="M3.844,8.371l.019.019-.019.017L3.827,8.39l.017-.019m.107.046L3.944,8.4l-.013.013.008.017.013-.014m.019-.024.009.024.054-.005.007-.005L4.037,8.4,3.99,8.372l-.019.02" transform="translate(-0.894 0.441)" fill="#bfb119"/>
      <path id="Path_387" data-name="Path 387" d="M4.047,8.336l.026.024L4.039,8.4l-.007,0L4.024,8.4l-.009-.054.031-.012" transform="translate(-0.884 0.439)" fill="#bfb119"/>
      <path id="Path_388" data-name="Path 388" d="M4.1,8.421l-.019.017-.047-.024,0-.007L4.038,8.4l.054-.005.007.027" transform="translate(-0.883 0.442)" fill="#bfb119"/>
      <path id="Path_389" data-name="Path 389" d="M4.033,8.389l.019.017-.019.018-.02-.018.019-.017m.095.063,0-.017-.015.01,0,.017.014-.01m.091,0,.024-.027.027-.014-.022-.01-.017.008,0-.008-.012.013,0,.027,0,.012m-.073-.03.005.025.053,0,.007,0V8.445l-.041-.034-.025.017" transform="translate(-0.884 0.442)" fill="#bfb119"/>
      <path id="Path_390" data-name="Path 390" d="M4.208,8.445l-.019,0,0,.019.022,0,0-.019" transform="translate(-0.875 0.444)" fill="#bfb119"/>
      <path id="Path_391" data-name="Path 391" d="M3.567,8.573l.012-.02.024.005-.014.022-.022-.007" transform="translate(-0.908 0.45)" fill="#ac1d23"/>
      <path id="Path_392" data-name="Path 392" d="M3.671,8.555l-.027.005L3.63,8.55l.012-.013L3.7,8.528l.012.012-.01.013-.027,0" transform="translate(-0.905 0.449)" fill="#2d906b"/>
      <path id="Path_393" data-name="Path 393" d="M3.756,8.521l.015.017-.015.014-.019-.014.019-.017" transform="translate(-0.899 0.448)" fill="#fff"/>
      <path id="Path_394" data-name="Path 394" d="M3.848,8.545H3.811L3.8,8.533l.014-.012h.073l.013.012-.013.013H3.848" transform="translate(-0.896 0.448)" fill="#ac1d23"/>
      <path id="Path_395" data-name="Path 395" d="M3.934,8.521l.017.017-.017.014-.017-.014.017-.017" transform="translate(-0.889 0.448)" fill="#fff"/>
      <path id="Path_396" data-name="Path 396" d="M4.022,8.555l.024.005.014-.01-.01-.013L4,8.528l-.014.012.01.013.029,0" transform="translate(-0.886 0.449)" fill="#2d906b"/>
      <path id="Path_397" data-name="Path 397" d="M4.143,8.575l-.01-.022-.025,0,.012.025.022-.006m-.288.068a.963.963,0,0,1-.239-.024.93.93,0,0,1,.239-.027A.949.949,0,0,1,4.1,8.62a.989.989,0,0,1-.241.024" transform="translate(-0.905 0.45)" fill="#ac1d23"/>
      <path id="Path_398" data-name="Path 398" d="M4.468,12.423a.315.315,0,0,1-.151-.034.354.354,0,0,0-.147-.029.336.336,0,0,0-.149.032.336.336,0,0,1-.149.032.3.3,0,0,1-.149-.034l-.146-.029a.315.315,0,0,0-.144.029.315.315,0,0,1-.152.034v.093a.352.352,0,0,0,.152-.034.314.314,0,0,1,.144-.033l.146.031a.335.335,0,0,0,.3,0,.336.336,0,0,1,.149-.031.33.33,0,0,1,.147.031.335.335,0,0,0,.149.034l0-.092" transform="translate(-0.923 0.65)" fill="#3558b0"/>
      <path id="Path_399" data-name="Path 399" d="M4.468,12.511a.346.346,0,0,1-.151-.034.318.318,0,0,0-.147-.032.336.336,0,0,0-.149.031.335.335,0,0,1-.3,0l-.146-.031a.322.322,0,0,0-.144.031.346.346,0,0,1-.152.034V12.6a.319.319,0,0,0,.152-.034.351.351,0,0,1,.144-.029l.146.029a.3.3,0,0,0,.149.034.349.349,0,0,0,.149-.031.336.336,0,0,1,.149-.032.321.321,0,0,1,.147.032.336.336,0,0,0,.149.031l0-.09" transform="translate(-0.923 0.655)" fill="#ccccc9"/>
      <path id="Path_400" data-name="Path 400" d="M4.468,12.6a.348.348,0,0,1-.151-.031.317.317,0,0,0-.147-.031.336.336,0,0,0-.149.031.336.336,0,0,1-.149.031.3.3,0,0,1-.149-.034l-.146-.029a.351.351,0,0,0-.144.029.315.315,0,0,1-.152.034v.093a.327.327,0,0,0,.152-.034.315.315,0,0,1,.144-.029l.146.029a.328.328,0,0,0,.149.034.315.315,0,0,0,.149-.034.338.338,0,0,1,.149-.029.319.319,0,0,1,.147.029.3.3,0,0,0,.149.034l0-.093" transform="translate(-0.923 0.66)" fill="#3558b0"/>
      <path id="Path_401" data-name="Path 401" d="M4.466,12.778a.335.335,0,0,1-.149-.034.317.317,0,0,0-.147-.031.336.336,0,0,0-.149.031.335.335,0,0,1-.3,0l-.146-.031a.314.314,0,0,0-.144.031.346.346,0,0,1-.152.034v-.093a.327.327,0,0,0,.152-.034.315.315,0,0,1,.144-.029l.146.029a.328.328,0,0,0,.149.034.315.315,0,0,0,.149-.034.337.337,0,0,1,.149-.029.319.319,0,0,1,.147.029.315.315,0,0,0,.151.034l0,.093" transform="translate(-0.923 0.664)" fill="#ccccc9"/>
      <path id="Path_402" data-name="Path 402" d="M4.466,12.864a.336.336,0,0,1-.149-.031.335.335,0,0,0-.3,0,.336.336,0,0,1-.149.031.327.327,0,0,1-.149-.034L3.577,12.8a.322.322,0,0,0-.144.031.315.315,0,0,1-.152.034v-.09a.351.351,0,0,0,.152-.034.314.314,0,0,1,.144-.031l.146.031a.335.335,0,0,0,.3,0,.336.336,0,0,1,.149-.031.322.322,0,0,1,.147.031.338.338,0,0,0,.151.034l0,.09" transform="translate(-0.923 0.669)" fill="#3558b0"/>
      <path id="Path_403" data-name="Path 403" d="M3.533,12.063l0,.022a.106.106,0,0,1-.107.1H4.3a.106.106,0,0,1-.108-.1l0-.022-.017,0H3.548l-.015,0" transform="translate(-0.915 0.635)" fill="#bfb119"/>
      <path id="Path_404" data-name="Path 404" d="M3.548,12.007h.634l.039.031-.039.029H3.548l-.039-.029.039-.031m-.117.4H4.3V12.19H3.43v.219" transform="translate(-0.915 0.632)" fill="#bfb119"/>
      <path id="Path_405" data-name="Path 405" d="M3.551,12.124h.618V9.094H3.551v3.03" transform="translate(-0.909 0.479)" fill="#ccccc9"/>
      <path id="Path_406" data-name="Path 406" d="M3.442,8.876h.85V8.653h-.85v.222m.09.149.015,0h.634l.02,0-.039-.051L4.2,8.924l-.02,0H3.547l-.017,0h0l.037.049-.037.051" transform="translate(-0.914 0.455)" fill="#bfb119"/>
      <path id="Path_407" data-name="Path 407" d="M3.544,9.011h.634l.039.029-.039.029H3.544L3.5,9.04l.039-.029m0-.146h.634l.039.024-.039.027H3.544L3.5,8.889l.039-.025" transform="translate(-0.911 0.467)" fill="#bfb119"/>
      <path id="Path_408" data-name="Path 408" d="M3.378,11.341c-.086.049-.144.1-.134.127l.071.066c.064.044.1.12.071.156a.224.224,0,0,0,.083-.173.221.221,0,0,0-.091-.176m1.445-1.147a1.937,1.937,0,0,0-.627-.1,1.625,1.625,0,0,0-.3.027c-.371.061-.652.21-.63.329l0,.01-.141-.325c-.025-.134.287-.3.7-.366a2.209,2.209,0,0,1,.364-.029,1.962,1.962,0,0,1,.63.085l0,.374" transform="translate(-0.931 0.512)" fill="#ac1d23"/>
      <path id="Path_409" data-name="Path 409" d="M3.564,10.547c-.171-.012-.288-.058-.3-.129s.049-.122.151-.178l.154.012,0,.295m.62-.232a.53.53,0,0,1,.227.076l.005.008c.019.039-.076.122-.232.215v-.3" transform="translate(-0.924 0.539)" fill="#ac1d23"/>
      <path id="Path_410" data-name="Path 410" d="M3.184,11.233c-.017-.049.151-.147.386-.232.11-.039.2-.081.311-.129.327-.144.569-.31.539-.371l0-.007.044.315c.029.056-.19.22-.5.364-.095.046-.3.122-.4.156-.173.059-.344.174-.329.215l-.056-.307v0M9.557,8.44l-.049.034-.046-.019-.039.024-.054-.025-.042.038-.044-.01-.024.024-.017,0L9.22,8.489l-.027-.027-.025-.009-.012-.042,0-.022.087-.063H9.32l.122-.032.115.027.117-.027.122.031h.078l.088.064,0,.022-.013.042-.021.009L9.9,8.489,9.874,8.5l-.019,0L9.83,8.482l-.041.01-.042-.036-.054.024-.041-.025-.046.02L9.557,8.44" transform="translate(-0.928 0.437)" fill="#ac1d23"/>
      <path id="Path_411" data-name="Path 411" d="M9.241,8.208l.054.076-.054.076-.054-.075.054-.076" transform="translate(-0.612 0.432)" fill="#bfb119"/>
      <path id="Path_412" data-name="Path 412" d="M9.239,8.215l.024.069-.025.068-.022-.069.022-.069" transform="translate(-0.611 0.432)" fill="#bfb119"/>
      <path id="Path_413" data-name="Path 413" d="M9.24,8.166l.036.034-.036.031L9.205,8.2l.034-.034" transform="translate(-0.611 0.43)" fill="#bfb119"/>
      <path id="Path_414" data-name="Path 414" d="M9.291,8.192v.021h-.1V8.192h.034V8.143H9.206V8.121h.022V8.1h.025v.022h.024v.022H9.252v.049h.039" transform="translate(-0.612 0.426)" fill="#bfb119"/>
      <path id="Path_415" data-name="Path 415" d="M9.007,8.3l.017.017-.017.014L8.99,8.313,9.007,8.3m.486,0,.017.017-.017.014-.017-.014L9.492,8.3" transform="translate(-0.622 0.437)" fill="#fff"/>
      <path id="Path_416" data-name="Path 416" d="M8.984,8.574l-.022-.039a1.162,1.162,0,0,1,.583,0l-.019.034L9.511,8.6a.944.944,0,0,0-.259-.029.921.921,0,0,0-.261.031l-.007-.026" transform="translate(-0.624 0.447)" fill="#bfb119"/>
      <path id="Path_417" data-name="Path 417" d="M9.253,8.672a1.1,1.1,0,0,0,.231-.025l.039-.031L9.509,8.6a1,1,0,0,0-.256-.029A.982.982,0,0,0,9,8.6l-.014.014.037.031a1.055,1.055,0,0,0,.231.025m.3-.176-.022-.022-.049.009-.037-.036-.054.024-.041-.025L9.3,8.465l-.046-.031L9.2,8.467,9.16,8.445l-.039.029L9.065,8.45l-.037.034-.049-.009-.007.014L8.959,8.5l.008.019a1.233,1.233,0,0,1,.576,0L9.55,8.5" transform="translate(-0.624 0.444)" fill="#bfb119"/>
      <path id="Path_418" data-name="Path 418" d="M9.257,8.4l.013,0,0,.015.044.039.039-.027.005-.014,0,.017.041.032.042-.039V8.418l.014-.013.007.015-.005.019.041.038.032-.017.01-.009v.012l.019.026.034-.012.031-.029v.014l-.036.044-.037.008-.027-.022L9.5,8.5l-.054-.032L9.4,8.486l-.049-.024-.041.017-.051-.027-.051.027-.042-.017-.046.025-.044-.02L9.02,8.5l-.032-.007-.025.022-.036-.008-.039-.044,0-.014.031.029.034.012.019-.027V8.449l.007.01.034.017.039-.038,0-.019.007-.015.012.012v.005l.044.039.041-.031V8.413l.007.014.039.027.044-.039,0-.015.01,0" transform="translate(-0.628 0.442)" fill="#bfb119"/>
      <path id="Path_419" data-name="Path 419" d="M9.26,8.5a1.058,1.058,0,0,0-.291.036l-.013-.007.005-.012a1.147,1.147,0,0,1,.3-.036,1.1,1.1,0,0,1,.3.037l.007.012-.012.007A1.073,1.073,0,0,0,9.26,8.5m-.391-.046-.022-.027L8.82,8.415l.023-.01.017.008V8.405l.014.013,0,.027-.007.012m.073-.03,0,.025-.051,0-.01,0,0-.007.042-.034.022.017" transform="translate(-0.631 0.442)" fill="#bfb119"/>
      <path id="Path_420" data-name="Path 420" d="M8.869,8.448l.019,0,.006.019-.02,0-.005-.019m.1,0,.005-.017.014.01-.007.017-.012-.01m.025-.031.019.017.046-.024,0-.007L9.054,8.4,9,8.394l-.009.027" transform="translate(-0.629 0.442)" fill="#bfb119"/>
      <path id="Path_421" data-name="Path 421" d="M9.037,8.336l-.025.024.032.044.01,0L9.059,8.4l.013-.054-.034-.012" transform="translate(-0.621 0.439)" fill="#bfb119"/>
      <path id="Path_422" data-name="Path 422" d="M9.123,8.392l-.01.024L9.06,8.412l-.007-.005,0-.009L9.1,8.372l.019.02" transform="translate(-0.619 0.441)" fill="#bfb119"/>
      <path id="Path_423" data-name="Path 423" d="M9.053,8.39l.019.017-.019.018-.02-.018.019-.017m.09.027L9.151,8.4l.01.013-.007.017-.009-.014m.034-.027.015.022L9.244,8.4l.005-.008-.005-.007-.051-.014-.015.022" transform="translate(-0.62 0.44)" fill="#bfb119"/>
      <path id="Path_424" data-name="Path 424" d="M9.24,8.315l-.032.019.024.051.007.007.009-.007.022-.051L9.24,8.315" transform="translate(-0.611 0.438)" fill="#bfb119"/>
      <path id="Path_425" data-name="Path 425" d="M9.309,8.39,9.3,8.412,9.245,8.4,9.238,8.39l.007-.007L9.3,8.368l.013.022" transform="translate(-0.609 0.44)" fill="#bfb119"/>
      <path id="Path_426" data-name="Path 426" d="M9.239,8.371l.019.019-.019.017L9.221,8.39l.018-.019m.107.046L9.339,8.4l-.012.013.01.017.009-.014m.02-.024.009.024.054-.005.008-.005L9.431,8.4l-.046-.025-.019.02" transform="translate(-0.61 0.441)" fill="#bfb119"/>
      <path id="Path_427" data-name="Path 427" d="M9.443,8.336l.025.024L9.437,8.4l-.01,0L9.419,8.4,9.41,8.348l.034-.012" transform="translate(-0.6 0.439)" fill="#bfb119"/>
      <path id="Path_428" data-name="Path 428" d="M9.494,8.421l-.017.017-.046-.024-.005-.007L9.433,8.4l.054-.005.007.027" transform="translate(-0.6 0.442)" fill="#bfb119"/>
      <path id="Path_429" data-name="Path 429" d="M9.427,8.389l.019.017-.019.018-.019-.018.019-.017m.095.063,0-.017-.015.01.005.017.014-.01m.091,0,.027-.027.024-.014-.022-.01-.017.008,0-.008-.015.013v.027l.005.012m-.071-.03,0,.025.051,0,.007,0V8.445l-.041-.034-.022.017" transform="translate(-0.6 0.442)" fill="#bfb119"/>
      <path id="Path_430" data-name="Path 430" d="M9.6,8.445l-.019,0,0,.019.019,0L9.6,8.445" transform="translate(-0.591 0.444)" fill="#bfb119"/>
      <path id="Path_431" data-name="Path 431" d="M8.962,8.573l.012-.02L9,8.558l-.014.022-.025-.007" transform="translate(-0.624 0.45)" fill="#ac1d23"/>
      <path id="Path_432" data-name="Path 432" d="M9.066,8.555l-.027.005-.013-.01.01-.013.054-.009L9.1,8.54l-.012.013-.026,0" transform="translate(-0.621 0.449)" fill="#2d906b"/>
      <path id="Path_433" data-name="Path 433" d="M9.148,8.521l.018.017-.018.014-.014-.014.014-.017" transform="translate(-0.615 0.448)" fill="#fff"/>
      <path id="Path_434" data-name="Path 434" d="M9.243,8.545H9.205l-.012-.012.012-.012h.073l.012.012-.012.013H9.242" transform="translate(-0.612 0.448)" fill="#ac1d23"/>
      <path id="Path_435" data-name="Path 435" d="M9.329,8.521l.017.017-.017.014-.017-.014.017-.017" transform="translate(-0.605 0.448)" fill="#fff"/>
      <path id="Path_436" data-name="Path 436" d="M9.414,8.555l.027.005.014-.01-.01-.013-.054-.009-.014.012.01.013.027,0" transform="translate(-0.602 0.449)" fill="#2d906b"/>
      <path id="Path_437" data-name="Path 437" d="M9.538,8.575l-.007-.022-.027,0,.012.025.022-.006m-.288.068a.963.963,0,0,1-.239-.024.93.93,0,0,1,.239-.027.949.949,0,0,1,.241.027.989.989,0,0,1-.241.024" transform="translate(-0.621 0.45)" fill="#ac1d23"/>
      <path id="Path_438" data-name="Path 438" d="M9.863,12.423a.3.3,0,0,1-.149-.034.375.375,0,0,0-.3,0,.336.336,0,0,1-.149.032.305.305,0,0,1-.149-.034l-.144-.029a.337.337,0,0,0-.149.029.3.3,0,0,1-.149.034v.093a.332.332,0,0,0,.149-.034.336.336,0,0,1,.149-.032l.144.031a.335.335,0,0,0,.3,0,.37.37,0,0,1,.3,0,.316.316,0,0,0,.149.034v-.092" transform="translate(-0.639 0.65)" fill="#3558b0"/>
      <path id="Path_439" data-name="Path 439" d="M9.863,12.511a.328.328,0,0,1-.149-.034.336.336,0,0,0-.149-.032.344.344,0,0,0-.149.031.335.335,0,0,1-.3,0l-.144-.031a.336.336,0,0,0-.149.031.328.328,0,0,1-.149.034V12.6a.3.3,0,0,0,.149-.034.375.375,0,0,1,.149-.029l.144.029a.3.3,0,0,0,.149.034.349.349,0,0,0,.149-.031.344.344,0,0,1,.149-.033.336.336,0,0,1,.149.032.326.326,0,0,0,.149.031v-.09" transform="translate(-0.639 0.655)" fill="#ccccc9"/>
      <path id="Path_440" data-name="Path 440" d="M9.863,12.6a.329.329,0,0,1-.149-.031.336.336,0,0,0-.149-.031.344.344,0,0,0-.149.031.336.336,0,0,1-.149.031.305.305,0,0,1-.149-.034l-.144-.029a.375.375,0,0,0-.149.029.3.3,0,0,1-.149.034v.092a.309.309,0,0,0,.149-.034.337.337,0,0,1,.149-.029l.144.029a.335.335,0,0,0,.149.034.315.315,0,0,0,.149-.034.345.345,0,0,1,.149-.029.337.337,0,0,1,.149.029.3.3,0,0,0,.149.034V12.6" transform="translate(-0.639 0.66)" fill="#3558b0"/>
      <path id="Path_441" data-name="Path 441" d="M9.863,12.778a.319.319,0,0,1-.149-.034.336.336,0,0,0-.149-.031.344.344,0,0,0-.149.031.335.335,0,0,1-.3,0l-.144-.031a.336.336,0,0,0-.149.031.328.328,0,0,1-.149.034v-.093a.309.309,0,0,0,.149-.034.337.337,0,0,1,.149-.029l.144.029a.335.335,0,0,0,.149.034.315.315,0,0,0,.149-.034.345.345,0,0,1,.149-.029.338.338,0,0,1,.149.029.3.3,0,0,0,.149.034v.093" transform="translate(-0.639 0.664)" fill="#ccccc9"/>
      <path id="Path_442" data-name="Path 442" d="M9.863,12.864a.321.321,0,0,1-.149-.031.335.335,0,0,0-.3,0,.358.358,0,0,1-.3,0L8.975,12.8a.336.336,0,0,0-.149.031.3.3,0,0,1-.149.034v-.09a.332.332,0,0,0,.149-.034.336.336,0,0,1,.149-.031l.144.031a.335.335,0,0,0,.3,0,.344.344,0,0,1,.149-.031.336.336,0,0,1,.149.031.323.323,0,0,0,.149.034v.09" transform="translate(-0.639 0.669)" fill="#3558b0"/>
      <path id="Path_443" data-name="Path 443" d="M8.927,12.063l.005.022a.106.106,0,0,1-.107.1H9.7a.1.1,0,0,1-.107-.1l0-.022-.015,0H8.942l-.014,0" transform="translate(-0.631 0.635)" fill="#bfb119"/>
      <path id="Path_444" data-name="Path 444" d="M8.942,12.007h.637l.039.031-.039.029H8.942L8.9,12.039l.039-.031m-.117.4H9.7V12.19H8.825v.219" transform="translate(-0.631 0.632)" fill="#bfb119"/>
      <path id="Path_445" data-name="Path 445" d="M8.945,12.124h.618V9.094H8.945v3.03" transform="translate(-0.625 0.479)" fill="#ccccc9"/>
      <path id="Path_446" data-name="Path 446" d="M8.837,8.876h.85V8.653h-.85v.222m.09.149.015,0h.637l.017,0-.039-.051L9.6,8.924l-.017,0H8.941l-.017,0h0l.037.049-.037.051" transform="translate(-0.631 0.455)" fill="#bfb119"/>
      <path id="Path_447" data-name="Path 447" d="M8.938,9.011h.637l.039.029-.039.029H8.938L8.9,9.04l.039-.029m0-.146h.637l.039.024-.039.027H8.938L8.9,8.889l.039-.025" transform="translate(-0.627 0.467)" fill="#bfb119"/>
      <path id="Path_448" data-name="Path 448" d="M9.79,11.341c.086.049.144.1.134.127l-.071.066c-.061.044-.1.12-.071.156a.231.231,0,0,1-.082-.173.226.226,0,0,1,.09-.176M8.345,10.193a1.945,1.945,0,0,1,.63-.1,1.631,1.631,0,0,1,.295.027c.371.061.652.21.63.329l0,.01.142-.325c.024-.134-.288-.3-.7-.366a2.2,2.2,0,0,0-.364-.029,1.969,1.969,0,0,0-.629.085l0,.374" transform="translate(-0.656 0.512)" fill="#ac1d23"/>
      <path id="Path_449" data-name="Path 449" d="M9.578,10.547c.173-.012.29-.058.3-.129s-.046-.122-.151-.178l-.151.012v.295m-.621-.232a.533.533,0,0,0-.227.076l-.005.008c-.019.039.076.122.234.215l0-.3" transform="translate(-0.637 0.539)" fill="#ac1d23"/>
      <path id="Path_450" data-name="Path 450" d="M9.965,11.123c.017-.049-.151-.147-.388-.232-.107-.039-.2-.081-.307-.129-.33-.144-.572-.31-.542-.371l0-.007-.046.315c-.029.056.193.22.5.364.1.046.3.122.4.156.173.059.344.174.327.215l.059-.307v0" transform="translate(-0.639 0.546)" fill="#ac1d23"/>
      <path id="Path_451" data-name="Path 451" d="M3.469,9.934l.027-.01.056.031-.017.059-.027.013-.039-.094m.046.112c.076-.029.125-.061.1-.119C3.6,9.888,3.561,9.88,3.5,9.9l-.1.037.092.229.031-.012.033-.009-.042-.1m.242-.208-.031.008-.035,0,.054.239.166-.034,0-.014,0-.015-.1.025-.049-.212m.334.205c.031-.086.069-.171.107-.254l-.022,0h-.02c-.019.061-.046.122-.071.183-.031-.056-.066-.114-.092-.171l-.039,0H3.915c.046.078.092.156.137.236l.019,0h.02m.349-.183.017-.034L4.388,9.8c-.068-.006-.107.025-.109.064-.012.088.124.081.117.137l-.056.031-.056-.046H4.274l-.017.044.071.022c.069.007.122-.019.127-.066.007-.081-.129-.086-.122-.134l.051-.029.049.034.007,0m4.551.2c.024-.087.056-.173.086-.261l-.02,0-.022,0c-.014.061-.034.124-.054.187l-.107-.163-.039.007-.042,0c.056.074.11.147.161.225l.02,0,.017,0M9.227,9.8l-.034,0-.034,0,0,.244.173,0,0-.018,0-.014-.1,0L9.228,9.8m.268.041.078.012V9.834l0-.015L9.348,9.8v.017l0,.015h.083l-.019.219.069.005L9.5,9.838m.215.034.059.039,0,.019-.081.035.025-.093m-.12.2.063.015.029-.112h0l.019.046.034.086.039.007.039.009L9.806,10.1l-.051-.114.083-.049-.027-.056L9.74,9.858l-.092-.019-.056.239m.369.013.083-.054-.009.092L9.96,10.09m.071.061-.013.081.034.017.031.019.025-.275-.017-.007-.015-.01-.242.156.02.007.019.012L9.94,10.1l.091.049" transform="translate(-0.917 0.515)" fill="#bfb119"/>
      <path id="Path_452" data-name="Path 452" d="M6.614,7.069a1.791,1.791,0,0,1,.625.1,1.25,1.25,0,0,0,.32.082,1.329,1.329,0,0,0,.259.01,1.02,1.02,0,0,1,.406.092,1.125,1.125,0,0,1,.3.188l-.061.054-.017.149-.163.188L8.2,8,8,8.153l-.1.009-.031.083L6.622,8.1l-1.257.146-.029-.083-.1-.009L5.042,8l-.082-.071L4.8,7.741l-.019-.149L4.72,7.538a1.1,1.1,0,0,1,.3-.187,1.012,1.012,0,0,1,.4-.093A1.385,1.385,0,0,0,6,7.165a1.707,1.707,0,0,1,.612-.1" transform="translate(-0.847 0.372)" fill="#ac1d23"/>
      <path id="Path_453" data-name="Path 453" d="M5.645,7.419l.051.044.081-.129a.3.3,0,0,1-.146-.249l0-.034c.008-.164.21-.3.464-.3a.606.606,0,0,1,.339.1l.007-.071A.7.7,0,0,0,6.1,6.687c-.294,0-.522.166-.532.364l0,.034a.353.353,0,0,0,.125.266l-.042.069" transform="translate(-0.803 0.352)" fill="#bfb119"/>
      <path id="Path_454" data-name="Path 454" d="M5.651,7.415a.366.366,0,0,1-.164-.288.388.388,0,0,1,.212-.32.341.341,0,0,0-.131.237l0,.034a.353.353,0,0,0,.125.266l-.039.071" transform="translate(-0.807 0.358)" fill="#bfb119"/>
      <path id="Path_455" data-name="Path 455" d="M4.808,7.543a.355.355,0,0,1-.091-.234l.034-.151a.709.709,0,0,1,.637-.286,1,1,0,0,1,.234.025l-.042.056a.957.957,0,0,0-.192-.02.633.633,0,0,0-.574.254l-.029.122a.287.287,0,0,0,.107.222l-.1.164-.054-.042.069-.11" transform="translate(-0.847 0.362)" fill="#bfb119"/>
      <path id="Path_456" data-name="Path 456" d="M4.914,7.006a.439.439,0,0,0-.159.162L4.72,7.32a.354.354,0,0,0,.091.234l-.061.1A.417.417,0,0,1,4.657,7.4a.472.472,0,0,1,.256-.392m1.719-.351a.14.14,0,0,1,.137.1,1.34,1.34,0,0,1,.017.176v.019l0,.023a.982.982,0,0,0,.049.325l-.2.195-.207-.2a.974.974,0,0,0,.049-.325l0-.021v-.02a1.358,1.358,0,0,1,.014-.176.148.148,0,0,1,.142-.1" transform="translate(-0.85 0.35)" fill="#bfb119"/>
      <path id="Path_457" data-name="Path 457" d="M6.54,6.716l.071.054a.875.875,0,0,1,.015.166v.019l0,.022a.951.951,0,0,0,.046.307l-.134.127L6.4,7.285a.99.99,0,0,0,.046-.307l0-.022,0-.019a1.086,1.086,0,0,1,.017-.166l.073-.054m.94.7-.054.044-.081-.129a.3.3,0,0,0,.146-.249l0-.034c-.007-.164-.209-.3-.464-.3a.591.591,0,0,0-.337.1L6.68,6.772a.7.7,0,0,1,.346-.085c.293,0,.522.166.532.364l0,.034a.353.353,0,0,1-.125.266l.044.069" transform="translate(-0.759 0.352)" fill="#bfb119"/>
      <path id="Path_458" data-name="Path 458" d="M7.424,7.415a.366.366,0,0,0,.164-.288.386.386,0,0,0-.215-.32.335.335,0,0,1,.134.237l0,.034a.353.353,0,0,1-.125.266l.039.071" transform="translate(-0.708 0.358)" fill="#bfb119"/>
      <path id="Path_459" data-name="Path 459" d="M8.3,7.543a.355.355,0,0,0,.091-.234l-.034-.151a.7.7,0,0,0-.637-.286,1.013,1.013,0,0,0-.234.025l.042.056a.947.947,0,0,1,.192-.02.633.633,0,0,1,.574.254l.029.122a.287.287,0,0,1-.107.222l.1.164.054-.042L8.3,7.543" transform="translate(-0.702 0.362)" fill="#bfb119"/>
      <path id="Path_460" data-name="Path 460" d="M8.164,6.988a.421.421,0,0,1,.159.163l.034.151a.354.354,0,0,1-.091.234l.061.1a.414.414,0,0,0,.09-.254.469.469,0,0,0-.254-.392" transform="translate(-0.666 0.368)" fill="#bfb119"/>
      <path id="Path_461" data-name="Path 461" d="M6.542,6.359a.161.161,0,1,1-.169.162.165.165,0,0,1,.169-.162" transform="translate(-0.76 0.335)" fill="#3558b0"/>
      <path id="Path_462" data-name="Path 462" d="M6.5,6.086v.086H6.405v.087H6.5v.252H6.381l-.007.024.015.061v0H6.7v0l.014-.061L6.7,6.51H6.591V6.259h.091V6.172H6.591V6.086H6.5" transform="translate(-0.76 0.32)" fill="#bfb119"/>
      <path id="Path_463" data-name="Path 463" d="M6.537,7.229,6.61,7.3l-.073.068L6.464,7.3l.073-.069" transform="translate(-0.755 0.38)" fill="#fff"/>
      <path id="Path_464" data-name="Path 464" d="M6.638,7.129l.073.069-.073.069L6.565,7.2l.073-.069m0-.131.056.056-.056.054-.059-.054L6.638,7m0-.115.041.039-.041.039L6.6,6.922l.041-.039m0-.107.031.031-.031.032L6.6,6.807l.034-.032m-1.946.886.042.041-.041.039L4.65,7.7l.042-.041m-.057-.1.042.039-.041.041L4.592,7.6l.044-.039M4.6,7.444l.042.039L4.6,7.525l-.041-.042L4.6,7.444m0-.124.042.039L4.592,7.4,4.55,7.359l.041-.039m.032-.125.042.039-.042.041L4.58,7.234l.044-.039m.064-.112.041.039-.041.042-.042-.042.042-.039m.086-.093.041.039-.041.039-.042-.039.042-.039m.1-.076.041.039-.041.039-.042-.039.042-.039m.117-.063.044.039-.044.042L4.949,6.89l.041-.039m.124-.044.042.039-.042.039-.041-.039.041-.039m.14-.024.041.039-.041.039L5.21,6.822l.044-.039m.129-.007.041.039-.041.039-.041-.039.041-.039m.129,0,.042.039-.042.039-.041-.039.041-.039m.142.564.041.039-.041.039-.042-.039.042-.039m-.071-.1.042.039-.042.039-.041-.039.041-.039m-.036-.112.041.041-.041.039L5.5,7.173l.044-.041m0-.12.044.039-.044.039-.042-.039.042-.039m.027-.122.041.039-.041.039-.042-.039.042-.039m.063-.11.044.039-.044.039L5.6,6.819l.041-.039m.1-.076.041.039-.041.039L5.7,6.744,5.737,6.7m.115-.066.041.041-.041.039L5.81,6.68l.041-.041M5.979,6.6l.041.039-.042.039-.044-.039L5.979,6.6m.129-.022.042.039-.042.039-.041-.039.041-.039m.127,0,.044.039-.044.039-.042-.039.041-.039m.134.022.042.039-.042.039-.041-.039L6.369,6.6m.124.042.042.041-.042.039L6.45,6.687l.044-.041m.286,0,.044.041-.044.039-.041-.039.041-.041M6.9,6.6l.041.039L6.9,6.682l-.042-.039L6.9,6.6m.134-.022.041.039-.041.039L7,6.621l.042-.039m.127,0,.041.039-.041.039-.042-.039.042-.039M7.3,6.6l.041.039L7.3,6.68l-.044-.039L7.3,6.6m.124.037.041.041-.041.039L7.38,6.68l.042-.041m.114.066.042.039-.042.039-.041-.039L7.536,6.7m.1.076.041.039-.041.039-.042-.039.042-.039m.064.11.041.039L7.7,6.968l-.041-.039L7.7,6.89m.027.122.042.039-.042.039L7.68,7.051l.044-.039m0,.12.044.041-.044.039-.041-.039.041-.041m-.036.112.041.039-.041.039-.042-.039.041-.039m-.071.1.042.039-.042.039-.041-.039.041-.039M7.76,6.78l.042.039-.041.039-.042-.039.042-.039m.129,0,.041.039-.041.039-.042-.039.042-.039m.132.007.041.039-.041.039L7.98,6.822l.042-.039m.137.024.041.039-.041.039-.042-.039.041-.039m.125.044.041.039-.041.042L8.24,6.89l.044-.039m.117.063.042.039L8.4,6.992l-.041-.039L8.4,6.914m.1.076.042.039L8.5,7.068l-.041-.039L8.5,6.99m.086.093.041.039-.041.042-.041-.042.041-.039m.064.112.041.039-.041.041-.042-.041.042-.039m.031.125.042.039L8.681,7.4,8.64,7.359l.041-.039m0,.124.041.039-.041.042-.042-.042.042-.039m-.037.117.041.039-.041.041L8.6,7.6l.044-.039m-.059.1.042.041-.042.039L8.54,7.7l.041-.041" transform="translate(-0.856 0.346)" fill="#fff"/>
      <path id="Path_465" data-name="Path 465" d="M6.6,8.658a4.284,4.284,0,0,1-1.184-.144l-.031-.049.031-.044A4.284,4.284,0,0,1,6.6,8.278a4.289,4.289,0,0,1,1.184.144l.029.044-.029.049A4.289,4.289,0,0,1,6.6,8.658" transform="translate(-0.812 0.436)" fill="#bfb119"/>
      <path id="Path_466" data-name="Path 466" d="M6.6,8.287A4.369,4.369,0,0,0,5.4,8.438c.024-.01.022-.042-.007-.12-.039-.1-.1-.092-.1-.092a4.816,4.816,0,0,1,1.3-.159,4.816,4.816,0,0,1,1.3.159s-.056-.005-.1.092c-.029.078-.031.11-.007.12a4.438,4.438,0,0,0-1.2-.151" transform="translate(-0.817 0.425)" fill="#bfb119"/>
      <path id="Path_467" data-name="Path 467" d="M6.6,8.071a4.816,4.816,0,0,0-1.3.159l-.051-.022.027-.051A4.707,4.707,0,0,1,6.6,7.99a4.732,4.732,0,0,1,1.329.166l.027.051-.051.022a4.816,4.816,0,0,0-1.3-.159" transform="translate(-0.819 0.421)" fill="#bfb119"/>
      <path id="Path_468" data-name="Path 468" d="M6.62,7.686l.049.008-.01.064a.18.18,0,0,0,.186.175.184.184,0,0,0,.178-.121l.027-.064.008.069a.189.189,0,0,0,.373-.027l0-.022.058-.059.032.074L7.5,7.86a.175.175,0,0,0,.178.169.181.181,0,0,0,.149-.076l.039-.046,0,.059a.11.11,0,0,0,.083.122A.261.261,0,0,0,8.1,8.02.944.944,0,0,0,8.236,7.9l.007.069a.555.555,0,0,1-.151.159l-.161.041-.114-.1L7.681,8.1a.251.251,0,0,1-.239-.147.269.269,0,0,1-.2.086.272.272,0,0,1-.215-.1.273.273,0,0,1-.411-.044.274.274,0,0,1-.412.044.271.271,0,0,1-.212.1.265.265,0,0,1-.2-.086.253.253,0,0,1-.239.147L5.421,8.06l-.115.1-.159-.041A.564.564,0,0,1,5,7.965L5,7.9a.922.922,0,0,0,.134.125.261.261,0,0,0,.154.066.112.112,0,0,0,.083-.122l0-.059.039.046a.181.181,0,0,0,.327-.093l-.017-.077.032-.074.059.059,0,.022a.188.188,0,0,0,.371.027l.009-.068.025.064a.19.19,0,0,0,.18.122.181.181,0,0,0,.186-.176l-.009-.064.049-.008" transform="translate(-0.833 0.405)" fill="#bfb119"/>
      <path id="Path_469" data-name="Path 469" d="M5.044,7.937l-.027-.042-.091-.007-.007.007-.091-.1-.134-.019a.112.112,0,0,1,.115-.111L4.9,7.7l.008-.039a.113.113,0,0,1,.076.069.247.247,0,0,1,0,.144l.034-.061.092-.063.054-.029,0,.022,0,.031.147.02-.1.087.031.027.017.019-.049.008-.1.007-.066-.007" transform="translate(-0.849 0.403)" fill="#bfb119"/>
      <path id="Path_470" data-name="Path 470" d="M4.914,7.877l.091.007.019.083-.09-.008-.02-.082" transform="translate(-0.837 0.415)" fill="#ac1d23"/>
      <path id="Path_471" data-name="Path 471" d="M5.316,7.912l.022-.071.061.044-.022.071-.061-.044" transform="translate(-0.816 0.413)" fill="#fff"/>
      <path id="Path_472" data-name="Path 472" d="M5.684,7.766l-.025-.039.008-.049L5.6,7.654l-.09-.007-.042,0,.01.019.019.029-.117.081.136.037-.007.031v.025l.039-.015.083-.037.056-.049" transform="translate(-0.813 0.402)" fill="#bfb119"/>
      <path id="Path_473" data-name="Path 473" d="M5.658,7.392l.087.114.027-.022.042-.013-.01.051-.013.087-.024.064L5.71,7.66l-.051.034-.047-.054-.044-.078-.027-.044.044,0,.034.012.039-.137" transform="translate(-0.804 0.389)" fill="#bfb119"/>
      <path id="Path_474" data-name="Path 474" d="M5.771,7.754l.009-.046-.024-.042.056-.049.081-.034.041-.017,0,.025-.008.031.137.039-.115.078.019.029.01.02H5.933l-.091-.008-.071-.027" transform="translate(-0.793 0.398)" fill="#bfb119"/>
      <path id="Path_475" data-name="Path 475" d="M5.717,7.636l.083.077-.083.078-.083-.078.083-.078" transform="translate(-0.799 0.402)" fill="#ac1d23"/>
      <path id="Path_476" data-name="Path 476" d="M6.088,7.761,6.125,7.7l.051.054-.037.063-.051-.054" transform="translate(-0.775 0.405)" fill="#fff"/>
      <path id="Path_477" data-name="Path 477" d="M6.495,7.7l-.019-.052.017-.051-.071-.041-.1-.027-.051-.008L6.3,7.58l-.147.066.147.066-.025.061.052-.009.1-.025L6.495,7.7" transform="translate(-0.772 0.396)" fill="#bfb119"/>
      <path id="Path_478" data-name="Path 478" d="M6.544,7.273l.073.144L6.651,7.4,6.7,7.393l-.022.054-.032.1-.042.069-.061-.03L6.48,7.61l-.039-.069-.032-.095-.022-.054.049,0,.037.019.071-.144" transform="translate(-0.759 0.383)" fill="#bfb119"/>
      <path id="Path_479" data-name="Path 479" d="M6.6,7.7l.019-.052L6.6,7.595l.071-.041.1-.027.049-.008-.007.025-.017.036.146.066a.221.221,0,0,1-.146.066l.017.036.007.025-.049-.01-.1-.025L6.6,7.7" transform="translate(-0.748 0.396)" fill="#bfb119"/>
      <path id="Path_480" data-name="Path 480" d="M6.542,7.566l.081.078-.081.078-.082-.078.083-.078" transform="translate(-0.756 0.398)" fill="#ac1d23"/>
      <path id="Path_481" data-name="Path 481" d="M6.993,7.761,6.955,7.7,6.9,7.752l.034.063.054-.054" transform="translate(-0.732 0.405)" fill="#fff"/>
      <path id="Path_482" data-name="Path 482" d="M7.321,7.754l-.01-.046.025-.042-.056-.049L7.2,7.583l-.039-.017,0,.025.008.031-.137.039.115.078-.019.029-.01.02h.044l.09-.008.069-.027" transform="translate(-0.726 0.398)" fill="#bfb119"/>
      <path id="Path_483" data-name="Path 483" d="M7.432,7.392l-.087.114-.027-.022-.041-.013.01.051.013.087.024.064.059-.014.051.034.046-.054.042-.078.029-.044-.044,0-.034.012-.039-.137" transform="translate(-0.713 0.389)" fill="#bfb119"/>
      <path id="Path_484" data-name="Path 484" d="M7.408,7.766l.024-.039-.008-.049.069-.025.09-.007.044,0-.009.019-.02.029.117.081-.139.037.007.031,0,.025-.039-.015-.083-.037-.056-.049" transform="translate(-0.706 0.402)" fill="#bfb119"/>
      <path id="Path_485" data-name="Path 485" d="M7.368,7.636l.081.077-.081.078-.082-.078.082-.078" transform="translate(-0.712 0.402)" fill="#ac1d23"/>
      <path id="Path_486" data-name="Path 486" d="M7.764,7.912l-.022-.071-.061.044.023.071.061-.044" transform="translate(-0.691 0.413)" fill="#fff"/>
      <path id="Path_487" data-name="Path 487" d="M8.064,7.937l.027-.042.09-.007.008.007.09-.1.132-.019A.11.11,0,0,0,8.3,7.661L8.2,7.7,8.2,7.663a.11.11,0,0,0-.076.069.253.253,0,0,0,0,.144l-.034-.061L8,7.751l-.054-.029,0,.022,0,.031-.146.02.1.087-.029.027-.017.019.049.008.1.007.066-.007" transform="translate(-0.685 0.403)" fill="#bfb119"/>
      <path id="Path_488" data-name="Path 488" d="M8.311,7.877l-.09.007-.02.083.091-.008.019-.082M6.6,8.621A4.714,4.714,0,0,1,5.508,8.5,4.51,4.51,0,0,1,6.6,8.375,4.483,4.483,0,0,1,7.693,8.5,4.721,4.721,0,0,1,6.6,8.621M5.328,8.338l.046-.061.129.017-.1.073-.073-.029" transform="translate(-0.815 0.415)" fill="#ac1d23"/>
      <path id="Path_489" data-name="Path 489" d="M5.592,8.249l.044-.041.039.042-.039.039L5.592,8.25" transform="translate(-0.801 0.432)" fill="#fff"/>
      <path id="Path_490" data-name="Path 490" d="M5.947,8.243l-.091.012L5.81,8.221l.037-.044.09-.012.093-.01.046.034-.037.044-.092.01" transform="translate(-0.79 0.429)" fill="#2d906b"/>
      <path id="Path_491" data-name="Path 491" d="M6.19,8.18l.041-.041.042.041-.042.039L6.19,8.18" transform="translate(-0.77 0.428)" fill="#fff"/>
      <path id="Path_492" data-name="Path 492" d="M6.547,8.209H6.42l-.042-.039.042-.039h.254l.041.039-.041.039H6.547" transform="translate(-0.76 0.428)" fill="#ac1d23"/>
      <path id="Path_493" data-name="Path 493" d="M6.8,8.18l.042-.041.042.041-.042.039L6.8,8.18" transform="translate(-0.737 0.428)" fill="#fff"/>
      <path id="Path_494" data-name="Path 494" d="M7.141,8.243l.09.012.046-.034-.036-.044L7.15,8.164l-.09-.01-.049.034.036.044.093.01" transform="translate(-0.727 0.429)" fill="#2d906b"/>
      <path id="Path_495" data-name="Path 495" d="M7.4,8.249l.041-.041.042.042-.042.039L7.4,8.25" transform="translate(-0.706 0.432)" fill="#fff"/>
      <path id="Path_496" data-name="Path 496" d="M7.755,8.318l-.046-.061-.129.017.1.073.073-.029" transform="translate(-0.697 0.435)" fill="#ac1d23"/>
      <path id="Path_497" data-name="Path 497" d="M6.645,13.034a3.252,3.252,0,0,1-1.406-.325.9.9,0,0,1-.51-.806V10.635H8.552V11.9a.9.9,0,0,1-.507.806,3.22,3.22,0,0,1-1.4.324" transform="translate(-0.847 0.56)" fill="#ccccc9"/>
      <path id="Path_498" data-name="Path 498" d="M6.65,12.382a.158.158,0,0,1,.122.154c0,.09-.087.159-.2.159s-.2-.069-.2-.159a.139.139,0,0,1,.117-.151l-.009-.017-.025-.027.047,0,.029.017.022-.029.024-.02.024.025.01.022.029-.018.032-.009-.007.024-.007.027" transform="translate(-0.761 0.648)" fill="#fcd27c"/>
      <path id="Path_499" data-name="Path 499" d="M6.565,12.777a1.092,1.092,0,0,0-.217-.117,1.156,1.156,0,0,0-.217-.005l.069.056.131.074a.488.488,0,0,0,.235-.007m.044.007a.415.415,0,0,1,.2-.115.564.564,0,0,1,.247.022l-.061.034a.261.261,0,0,1-.156.061c-.083,0-.176-.009-.191-.007l-.036,0" transform="translate(-0.773 0.666)" fill="#2d906b"/>
      <path id="Path_500" data-name="Path 500" d="M6.56,12.673,6.5,12.532l.061-.142.061.142-.061.141" transform="translate(-0.754 0.652)" fill="#ac1d23"/>
      <path id="Path_501" data-name="Path 501" d="M6.519,12.865l.027-.109-.007-.081h.031l.015.081-.008.09-.027.008-.031.012" transform="translate(-0.752 0.667)" fill="#2d906b"/>
      <path id="Path_502" data-name="Path 502" d="M6.639,11.9a.957.957,0,0,1-1.912,0V10.632H6.639V11.9" transform="translate(-0.847 0.56)" fill="#ac1d23"/>
      <path id="Path_503" data-name="Path 503" d="M4.724,11.886a.967.967,0,0,0,.217.6V10.6H4.726l0,1.286m.421.767a1.177,1.177,0,0,0,.229.1l-.005-2.169H5.144v2.064m.428.151a.938.938,0,0,0,.222,0V10.59H5.572V12.8m.419-.046a.8.8,0,0,0,.23-.1V10.589H6l-.005,2.169m.437-.3a.867.867,0,0,0,.214-.486l.005-1.387H6.423l.006,1.873" transform="translate(-0.847 0.557)" fill="#bfb119"/>
      <path id="Path_504" data-name="Path 504" d="M8.459,10.632V11.9a.96.96,0,0,1-1.916,0V10.632H8.459" transform="translate(-0.751 0.56)" fill="#ac1d23"/>
      <path id="Path_505" data-name="Path 505" d="M7.255,12.491l-.051.046-.156-.081.014-.068a.717.717,0,0,0,.193.1Zm.031-.056.015-.064a.541.541,0,0,1-.159-.081l-.049.044a.618.618,0,0,0,.193.1Zm-.41-.642.066.015,0,.083.007.087L6.884,12l-.008-.1ZM6.82,12l-.068-.012-.01-.171.069-.022v.1Zm.4-.366V11.57H7.116v.063ZM6.874,11.2H6.811v.1h.063Zm.379.7L7.2,11.861l-.066.075.049.039Zm.227.7-.095-.078a.717.717,0,0,1-.181-.049l.032-.054.156.042.058-.054V12.19l-.066-.017V12l.066-.017v-.293l-.007,0-.152.169.039.054-.117.129-.063-.025-.127.139,0,.108.122.1-.031.054L6.967,12.3l-.1-.019-.01-.137.005-.006a.547.547,0,0,1-.049-.191l.063,0a.529.529,0,0,0,.042.161l.056,0,.127-.139-.039-.056.117-.127.063.027.151-.171-.007-.015h-.1l-.019.061H7.084l-.022-.061H6.94l-.064.061v.154l-.066,0v-.151L6.738,11.6l.073-.093v-.154l-.069-.019v-.169l.069-.019v-.154L6.74,10.9a.1.1,0,0,1,.1-.1l.1.069h.117l.019-.064H7.26l.019.064h.1l.1-.069,0,.32H7.451v.1h.031l0,.823H7.45v.1H7.48Zm-.3-1.379-.049.039.069.076.048-.039Zm.276.054-.066-.019v-.169l.066-.02v-.073l-.069-.063h-.1l-.019.063H7.082l-.019-.063H6.945l-.013.022.2.227.064-.025.117.13-.039.054.159.178.012,0Zm-.607.369.044-.041-.044-.042L6.8,11.6Zm.278-.774v.061h.1v-.061Zm.264.7.007-.015-.161-.181-.064.029-.117-.129.039-.056-.2-.229-.013,0,0,.154.066.019v.169l-.066.019,0,.154.066.064h.122l.022-.061h.179l.019.061h.1" transform="translate(-0.741 0.568)" fill="#bfb119"/>
      <path id="Path_506" data-name="Path 506" d="M7.669,12.491l.049.046.156-.081-.013-.068a.717.717,0,0,1-.193.1Zm-.031-.056-.015-.064a.573.573,0,0,0,.159-.081l.046.044a.592.592,0,0,1-.19.1Zm.41-.642-.066.015,0,.083-.008.087L8.041,12l.009-.1ZM8.1,12l.069-.012.009-.171-.069-.022v.1Zm-.4-.366V11.57h.107v.063Zm.349-.434h.063v.1H8.051Zm-.381.7.049-.039.068.075-.049.039Zm-.224.7.095-.078a.717.717,0,0,0,.181-.049l-.032-.054-.156.042-.059-.054V12.19l.066-.017V12l-.066-.017v-.293l.008,0,.151.169-.039.054.117.129.063-.025.125.139,0,.108-.122.1.031.054.144-.122.1-.019.012-.137-.006-.006a.548.548,0,0,0,.049-.191l-.063,0a.6.6,0,0,1-.041.161l-.056,0-.127-.139.039-.056-.117-.127-.064.027-.151-.171.007-.015h.1l.02.061h.178l.022-.061h.122l.064.061,0,.154.063,0v-.151l.074-.095-.074-.093v-.154l.066-.019v-.169l-.066-.019v-.154l.069-.095a.1.1,0,0,0-.1-.1l-.1.069H7.863L7.843,10.8H7.665l-.02.064h-.1l-.1-.069,0,.32h.031v.1H7.443v.823h.031v.1H7.443Zm.3-1.379.049.039-.068.076-.049-.039Zm-.276.054.066-.019v-.169l-.066-.02v-.073l.069-.063h.1l.02.063h.178l.019-.063H7.98l.013.022-.206.227-.063-.025-.117.13.039.054-.161.178-.01-.005Zm.608.369L8.039,11.6l.044-.042.046.042ZM7.8,10.867v.061H7.7v-.061Zm-.264.7-.009-.015.163-.181.064.029.117-.129-.039-.056.2-.229.013,0,0,.154-.066.019v.169l.066.019,0,.154-.066.064H7.863l-.022-.061H7.663l-.02.061h-.1" transform="translate(-0.704 0.568)" fill="#bfb119"/>
      <path id="Path_507" data-name="Path 507" d="M7.35,11.567a.1.1,0,1,1,.1.1.1.1,0,0,1-.1-.1" transform="translate(-0.709 0.604)" fill="#2d906b"/>
      <path id="Path_508" data-name="Path 508" d="M4.726,10.738H6.639V8.619H4.726v2.119" transform="translate(-0.847 0.454)" fill="#ac1d23"/>
      <path id="Path_509" data-name="Path 509" d="M5.863,9.2H6M5.6,8.99h.131m-.4.212h.139m.192-.115V9.017m0,.212V9.158m0,.281V9.368m0,.212V9.51m0,.351V9.79m0-.071V9.649m0,.361V9.932m.274-.7V9.3m-.132.07v.071m.264-.071v.071M6,9.439V9.51m-.141-.071V9.51m-.132-.071V9.51m.071,0V9.58m.131-.071V9.58m.132-.071V9.58M6,9.58v.069M5.863,9.58v.069M5.731,9.58v.069m.071,0V9.72m-.071,0V9.79m0,.071v.071m.071.078V9.932m-.071.078v.071m.131-.071v.071M6,10.01v.071m-.2.061v-.061m.061.061v.078m.273,0v-.078m-.131.078v-.078m-.071-.132V9.932m0,.21v-.061m0,.212V10.22m0,.212v-.071m.071,0v-.069m.132,0v.069m-.071-.069V10.22m0,.212v-.071m0-1.223H5.8m.2.091H5.863m-.467,0V9.3m.134.07v.071m-.266-.071v.071m.064,0V9.51m.139-.071V9.51M5.6,9.439V9.51m-.068,0V9.58M5.4,9.51V9.58M5.265,9.51V9.58m.063,0v.069m.139-.069v.069M5.6,9.58v.069m-.068,0V9.72m.069,0V9.79m0,.071v.071m-.069.078V9.932m.069.078v.071m-.132-.071v.071m-.139-.071v.071m.2.061v-.061m-.063.061v.078m-.274,0v-.078m.134.078v-.078M5.4,10.01V9.932m0,.21v-.061m0,.212V10.22m0,.212v-.071m-.069,0v-.069m-.134,0v.069m.071-.069V10.22m0,.212v-.071m0-1.223h.266m-.2.091h.139m.063-.3H5.8m-.2.087h.131M5.6,9.087h.131M5.6,9.158h.131M5.6,9.229h.131m-.4.069H6m-.811.07h.942m-.942.071h.942m-.942.071h.942m-.942.071h.942m-.872.069h.8m-.8.071h.8m-.8.071h.8m-.8.071h.8m-.8.071h.8m-.8.078h.8m-.8.071h.8m-.94.061H6.207m-1.081.078H6.207m-1.081.073H6.207m-1.081.069H6.207m-1.081.071H6.207M5.363,9.095H5.328V9.06H5.265V9.2h.064V9.3H5.194V9.58h.071v.562H5.126v.291H6.207v-.291H6.066V9.58h.071V9.3H6.005V9.2h.061V9.06H6v.034H5.968V9.06H5.91v.034H5.863V9.06H5.8V9.2h.061V9.3H5.731V8.99H5.8V8.85H5.731v.034H5.7V8.85H5.636v.034H5.6V8.85H5.531V8.99H5.6V9.3H5.468V9.2h.063V9.06H5.468v.034H5.433V9.06H5.363v.034" transform="translate(-0.826 0.466)" fill="#bfb119"/>
      <path id="Path_510" data-name="Path 510" d="M5.828,10.37v-.186c0-.034-.017-.142-.186-.142s-.176.108-.176.142v.186h.361" transform="translate(-0.808 0.529)" fill="#bfb119"/>
      <path id="Path_511" data-name="Path 511" d="M5.537,10.234l-.086-.009.034-.1.081.063-.029.051m.151-.087.044-.078-.081-.02-.069.02.044.078h.061m.088.087.087-.009-.036-.1-.078.063.027.051m-.254-.307V9.732a.093.093,0,0,0-.1-.1.091.091,0,0,0-.1.1v.195h.195m.271,0V9.732a.1.1,0,0,1,.195,0v.195H5.793M5.459,9.45l.009-.175H5.3l.02.175h.139m.264,0,.019-.175H5.573l.01.175h.139m.132,0-.017-.175h.176L6,9.45H5.854" transform="translate(-0.817 0.488)" fill="#bfb119"/>
      <path id="Path_512" data-name="Path 512" d="M5.774,10.392v-.159a.11.11,0,0,0-.125-.1.107.107,0,0,0-.114.1v.158h.239m-.274-.5V9.722l-.078-.088-.081.088v.169H5.5m.307,0V9.722l.081-.088.077.088v.169H5.808" transform="translate(-0.814 0.507)" fill="#3e4faa"/>
      <path id="Path_513" data-name="Path 513" d="M6.543,10.738H8.457V8.619H6.543v2.119" transform="translate(-0.751 0.454)" fill="#ccccc9"/>
      <path id="Path_514" data-name="Path 514" d="M7.487,9.119V9.1l.005-.014-.093,0-.092-.049-.064-.044L7.15,9l.069.049.075.061.122,0,.071.005" transform="translate(-0.719 0.473)" fill="#dc3140"/>
      <path id="Path_515" data-name="Path 515" d="M7.79,9.039l0,.054,0,.061.012.036.009.037-.029-.022-.024-.017.005.039.019.049.042.049.005.056-.034-.034-.046-.024.029.059-.013.061L7.731,9.4l-.044-.034.019.074L7.7,9.535,7.672,9.5l-.039-.029.019.044a.425.425,0,0,0,.073.179c.038.051.093.141.21.112s.076-.188.049-.264a.754.754,0,0,1-.037-.183l.022-.129L7.975,9.1l.037-.091.014-.051.005-.051.027.054.005.056L8.1,8.956,8.182,8.9l.012-.019-.025.1L8.1,9.061l.046-.01h.032l-.051.061L8.09,9.2l-.069.059-.012.185.079.222a.211.211,0,0,1-.061.183l-.134.046a.122.122,0,0,0-.049.11.1.1,0,0,0,.044.095l.049.022.017.027.013.032-.047.071-.031.093,0,.054.012.049-.037-.007-.039.015-.015-.029L7.809,10.4l-.014.015-.012.034-.063-.039.027-.036.022-.02H7.738l-.029-.009,0-.064.056.007.041-.027L7.8,10.2l-.037-.029-.012-.036v.085l-.029-.029L7.7,10.143v.051l.01.031-.039-.031-.037-.042L7.614,10.1l0-.061L7.628,10H7.574l-.061.01.007.11.02.085-.029.034-.034,0-.049-.01-.051,0-.044-.01-.025.027-.019.027-.038-.01-.029-.014.014-.029v-.019l-.027,0-.027.017-.019-.041v-.044l.058,0L7.21,10.1l-.009-.03.027-.019.029-.025.025.054.078.031.051-.019-.005-.042.005-.036-.025.022-.014.029,0-.042,0-.031-.008-.037-.012.037,0,.039-.019-.059.005-.078.078-.063h.1l.078-.012-.137-.076-.077-.081L7.352,9.6l-.037.01-.049.039-.027.039,0-.046,0-.034L7.2,9.677l-.056.044.005-.034,0-.036-.046.031L7.037,9.7v.051l-.019.023-.029-.015-.029.007-.005-.027.019-.031-.034.006-.032-.006,0-.039.008-.025.046-.007-.032-.022L6.91,9.589l.019-.025.029-.019L7,9.584l.081-.01.058-.036L7.2,9.494l-.039-.029-.041-.042L7.045,9.4l-.066-.017.032-.015.031-.019h.013L7,9.342l-.049-.019-.031,0L6.969,9.3l.041,0-.044-.022-.025-.039L6.92,9.218l-.044.015-.022-.027-.005-.02-.005-.036.054,0-.031-.032-.025-.029.029-.024L6.9,9.034l.044.046.01-.044.01-.031L7,9.023l.042.007-.025.042-.009.056.044.056.071.031.082.056.034.012.042-.007.1-.005.041-.044-.054-.054.051-.017L7.5,9.123l-.029-.073-.081-.042,0-.044.051-.015.075-.009.025-.034.056-.014.107.066.088.086" transform="translate(-0.736 0.467)" fill="#ee4ead"/>
      <path id="Path_516" data-name="Path 516" d="M7.367,9.007,7.36,8.985l-.005-.012.031.012L7.374,9l-.007.009m.151-.051,0-.017.044.009.034.042-.032-.015H7.545L7.53,8.968v-.01l-.012,0m-.151.2.012-.019.014.019H7.367m.032,0,.014-.019.017.016-.032,0m-.014-.124.031.01-.027.014,0-.024m.036.01.029.007-.022.017L7.42,9.041" transform="translate(-0.709 0.47)" fill="#100f0d"/>
      <path id="Path_517" data-name="Path 517" d="M6.97,9,7,9.017l.032,0,0-.034L6.99,8.929,7,8.969,6.97,9m-.086.039-.051-.025-.056.03.046,0,.02.034.027-.022.014-.022m-.041.119L6.8,9.183l-.014.054.036-.022.044.007-.006-.029-.012-.031m.1.385-.046-.012-.044.037.036,0,.024.017.017-.017.013-.023m-.034.112-.044.013-.019.049.034-.015.034.01,0-.025-.008-.031m.056.1.013.049.044.022-.012-.029.015-.029-.029-.015-.029,0m.278.266L7.2,10.009l-.056.027.041.007.017.025.022-.012.019-.025m-.081.108-.054.014L7.09,10.2l.041-.022.042.013-.005-.029-.007-.027m.076.114,0,.044.041.028-.007-.029.027-.032-.056-.01m.474.044-.049,0-.031.054.048-.022.034.012v-.029l0-.019m.012.114-.012.046.022.042.01-.039.039-.014-.027-.019-.032-.015m.119.037.012.049.041.022-.013-.046.02-.029-.031-.008-.03.012" transform="translate(-0.739 0.47)" fill="#dc3140"/>
      <path id="Path_518" data-name="Path 518" d="M7.73,8.883H7.717L7.708,8.9l-.032,0,0-.015H7.652l0-.029,0-.007V8.832l-.014.005,0,.007-.027.007L7.6,8.838l-.007.006-.029-.051L7.559,8.8l0,.049L7.552,8.9l.112.061.087.093.046-.02.051-.007.008-.008L7.8,9l0-.007-.012,0,0-.025.007,0V8.947l-.013,0-.007,0-.031,0-.006-.019-.017,0,0-.029.012-.012,0-.009" transform="translate(-0.698 0.463)" fill="#bfb119"/>
      <path id="Path_519" data-name="Path 519" d="M7.643,8.9h.01l0,.01-.01,0,0-.007m.037.03-.012-.008,0-.007h.008l.025.019,0,.006H7.692l-.012-.01m-.066-.044L7.6,8.884l0-.007h.008l.009,0,.01.008,0,.005h0l-.01-.005m-.041-.027h.01l0,.007H7.575l0-.007m.146.1,0-.007H7.707l0,.007h.009m.022.024L7.748,9h.007V8.992l-.007-.01-.009-.008-.005,0v.007l.007.007m.037.032,0-.01H7.768v.01h.01" transform="translate(-0.697 0.466)" fill="#100f0d"/>
      <path id="Path_520" data-name="Path 520" d="M7.669,8.793H7.647l-.005.031,0,.007.005,0,.029-.017-.01-.019" transform="translate(-0.693 0.463)" fill="#bfb119"/>
      <path id="Path_521" data-name="Path 521" d="M7.669,8.793H7.647l-.005.031,0,.007.005,0,.029-.017-.01-.019" transform="translate(-0.693 0.463)" fill="#bfb119"/>
      <path id="Path_522" data-name="Path 522" d="M7.609,8.809v.022l.034.005.005-.005v0L7.629,8.8l-.02.01" transform="translate(-0.695 0.463)" fill="#bfb119"/>
      <path id="Path_523" data-name="Path 523" d="M7.679,8.849l-.017.01L7.64,8.832v0l.007,0,.034.005,0,.019" transform="translate(-0.694 0.464)" fill="#bfb119"/>
      <path id="Path_524" data-name="Path 524" d="M7.641,8.829l.014-.005,0,.015-.017.005,0-.015m-.082-.036L7.55,8.767l-.017-.017.034,0,0,.034-.007.005" transform="translate(-0.699 0.461)" fill="#bfb119"/>
      <path id="Path_525" data-name="Path 525" d="M7.6,8.805l-.015.012L7.554,8.8l0-.009.034,0,0,.022" transform="translate(-0.698 0.462)" fill="#bfb119"/>
      <path id="Path_526" data-name="Path 526" d="M7.552,8.791l.012-.01,0,.015L7.557,8.8,7.552,8.79m.207.057-.021,0-.01.031,0,0,.005,0,.031-.017-.007-.019" transform="translate(-0.698 0.462)" fill="#bfb119"/>
      <path id="Path_527" data-name="Path 527" d="M7.691,8.853l-.005.019.034.01.005,0V8.875L7.71,8.846l-.019.008" transform="translate(-0.691 0.466)" fill="#bfb119"/>
      <path id="Path_528" data-name="Path 528" d="M7.753,8.9l-.02.01-.017-.029V8.874h.008l.034.007L7.753,8.9" transform="translate(-0.689 0.467)" fill="#bfb119"/>
      <path id="Path_529" data-name="Path 529" d="M7.712,8.871l.017,0,0,.015-.017,0,0-.015m.115.042.005.019L7.8,8.945l-.005,0,0,0L7.8,8.906l.022.006" transform="translate(-0.69 0.467)" fill="#bfb119"/>
      <path id="Path_530" data-name="Path 530" d="M7.818,8.968l-.022,0-.013-.031,0-.005h.005l.031.013,0,.019" transform="translate(-0.686 0.47)" fill="#bfb119"/>
      <path id="Path_531" data-name="Path 531" d="M7.761,8.911l-.007.019.031.012h.008V8.938l-.01-.032-.022.005" transform="translate(-0.688 0.469)" fill="#bfb119"/>
      <path id="Path_532" data-name="Path 532" d="M7.8,8.946V8.932H7.779v.014H7.8m.051.069.032.005.017.009L7.886,9l-.034.008,0,.008" transform="translate(-0.686 0.47)" fill="#bfb119"/>
      <path id="Path_533" data-name="Path 533" d="M7.826,8.978,7.814,9l.029.02,0-.005h0l0-.034H7.826" transform="translate(-0.684 0.473)" fill="#bfb119"/>
      <path id="Path_534" data-name="Path 534" d="M7.849,9.016,7.854,9H7.839l-.005.012h.015" transform="translate(-0.683 0.474)" fill="#bfb119"/>
      <path id="Path_535" data-name="Path 535" d="M6.578,9.961a.7.7,0,0,1,0,1.394.7.7,0,0,1,0-1.394" transform="translate(-0.782 0.524)" fill="#ac1d23"/>
      <path id="Path_536" data-name="Path 536" d="M6.569,10.138a.517.517,0,0,1,0,1.021.517.517,0,0,1,0-1.021" transform="translate(-0.773 0.534)" fill="#3558b0"/>
      <path id="Path_537" data-name="Path 537" d="M6.36,10.288l-.052.11.022.095-.054-.036-.058.056.009.029.02.037.036-.022.042.039,0,.01H6.276v.039h.042l-.029.061.039-.014.032.034.032-.034.041.014L6.4,10.645h.041v-.039H6.4V10.6l.039-.039.037.022.019-.037.01-.029-.056-.056-.056.037.022-.1-.051-.11" transform="translate(-0.768 0.541)" fill="#bfb119"/>
      <path id="Path_538" data-name="Path 538" d="M6.274,10.645H6.44v-.039H6.274v.039m.486-.356-.049.11.019.095-.053-.036-.056.056.01.029.017.037.037-.022.041.039v.01H6.679v.039H6.72l-.031.061.041-.014.029.034.034-.034.039.014L6.8,10.645h.041v-.039H6.8l0-.01.042-.039.036.022.02-.037.009-.029-.059-.056-.053.037.022-.1-.054-.11" transform="translate(-0.765 0.541)" fill="#bfb119"/>
      <path id="Path_539" data-name="Path 539" d="M6.672,10.629h.166V10.59H6.672v.039m-.12-.007-.051.108.02.1-.051-.037-.059.054.009.029.017.039.039-.023.042.039,0,.01H6.469v.039h.041l-.031.061.041-.017.031.037.032-.037.039.017-.029-.061h.041v-.039H6.589l0-.01.042-.039.036.023.019-.039.007-.029-.056-.054-.054.037.022-.1-.051-.108" transform="translate(-0.758 0.557)" fill="#bfb119"/>
      <path id="Path_540" data-name="Path 540" d="M6.466,10.961h.166v-.039H6.467v.039" transform="translate(-0.755 0.575)" fill="#bfb119"/>
    </g>
  </g>
</svg>
