<svg xmlns="http://www.w3.org/2000/svg" xmlns:xlink="http://www.w3.org/1999/xlink" width="20" height="20" viewBox="0 0 20 20">
  <defs>
    <clipPath id="clip-path">
      <rect id="Rectangle_400" data-name="Rectangle 400" width="20" height="20" transform="translate(925 881)" fill="#fff" stroke="#707070" stroke-width="1" opacity="0.666"/>
    </clipPath>
  </defs>
  <g id="Mask_Group_4" data-name="Mask Group 4" transform="translate(-925 -881)" opacity="0.803" clip-path="url(#clip-path)">
    <g id="united-kingdom" transform="translate(926.037 881)">
      <path id="Path_541" data-name="Path 541" d="M18.68,13.663l.225.146-.225-.146m-.236.528-2.591-1.719Zm0,0-.743.791-3.723-2.509Zm0,0-1.321.882-1.814-1.172Zm0,0M12.548,6.079l3.694-2.422L12.548,6.079m0,1.064h1.419L16.6,5.423,13.966,7.144H12.548m4.28,0h0l1.843-1.213L16.83,7.144h0M7.213,12.471H5.792L2.008,14.944l3.784-2.473H7.213M1.09,13.683l1.841-1.211Zm0,0M5.78,7.144,2.06,4.637Zm0,0" transform="translate(-0.98 0.193)" fill="#fff"/>
      <path id="Path_542" data-name="Path 542" d="M7.223,6.356V1.32L3.386,3.878Zm0,0M1.088,6.078a1.985,1.985,0,0,0-.1.588v.6H2.919L1.088,6.078M16.833,7.267h1.958v-.6a1.939,1.939,0,0,0-.112-.613L16.836,7.267h0M12.553,6.2l3.694-2.422L12.553,1.32Zm0,0,0,7.305v5.034l3.833-2.556-1.814-1.172-2.019-1.306m6.133.279a1.926,1.926,0,0,0,.1-.591v-.6H16.85l1.836,1.191M2.936,12.594H.986v.6A2.008,2.008,0,0,0,1.1,13.8l1.841-1.211m.591,3.484,3.7,2.463V13.627l-.005.031-3.691,2.42" transform="translate(-0.986 0.069)" fill="#232d62"/>
      <path id="Path_543" data-name="Path 543" d="M11.484,19.324V11.594h7.307V8.406H11.484V.676L10.876.271A1.8,1.8,0,0,0,9.889,0h0A1.809,1.809,0,0,0,8.9.271L8.293.676V8.406H.986v3.189H8.293v7.729l.608.405A1.8,1.8,0,0,0,9.887,20h0a1.807,1.807,0,0,0,.986-.271l.608-.405" transform="translate(-0.986)" fill="#cb1d2b"/>
      <path id="Path_544" data-name="Path 544" d="M1.308,5.408,3.894,7.124H5.769L2.048,4.617l-.093.061a2.263,2.263,0,0,0-.647.73M16.814,4.029,12.536,6.814v.31h1.419L16.589,5.4l1.155-.754-.93-.62m-2.847,8.423,3.723,2.509.095-.063a2.2,2.2,0,0,0,.648-.727l-2.591-1.719H13.967m-6.765.31v-.31H5.781L2,14.925l.928.62L7.2,12.762" transform="translate(-0.969 0.212)" fill="#cb1d2b"/>
      <path id="Path_545" data-name="Path 545" d="M5.786,7.3H3.911L1.325,5.586a2.779,2.779,0,0,0-.237.527L2.919,7.3H.986V8.372H8.293V.642l-1.069.713V6.392L3.386,3.913l-1.321.881L5.786,7.3m-2.4-3.388L7.223,6.392,3.386,3.914M1.325,5.586,3.911,7.3Zm0,0,11.228.652V1.356L11.484.642V8.372h7.307V7.3H16.836l1.843-1.214A2.458,2.458,0,0,0,17.8,4.856l-.041-.029-1.155.754L13.971,7.3H12.553v-.31l4.278-2.786-.584-.391L12.553,6.238" transform="translate(-0.986 0.034)" fill="#fff"/>
      <path id="Path_546" data-name="Path 546" d="M16.306,4.029,12.028,6.814h0l4.277-2.786M16.081,5.4l1.155-.754L16.081,5.4m.244,7.049h1.941v-1.07H10.959v7.729l1.069-.712V13.364l2.019,1.306,1.814,1.172,1.321-.881-3.723-2.51h1.875l2.591,1.719a2.737,2.737,0,0,0,.236-.527l-1.836-1.191m-4.3.914,2.019,1.306Zm0,0" transform="translate(-0.461 0.212)" fill="#fff"/>
      <path id="Path_547" data-name="Path 547" d="M16.85,12.084l1.836,1.191L16.85,12.084h0m-8.557-1.07H.986v1.07H2.936L1.1,13.295a2.5,2.5,0,0,0,.876,1.236l.042.027L5.8,12.084H7.219v.31L2.941,15.177l.586.391,3.691-2.419.005-.031V18.03l1.069.713V11.015" transform="translate(-0.986 0.58)" fill="#fff"/>
      <path id="Path_548" data-name="Path 548" d="M7.121,13.079l.005-.031-.005.031L3.43,15.5l3.691-2.419M2.844,15.108l4.277-2.783L2.843,15.108" transform="translate(-0.888 0.649)" fill="#fff"/>
    </g>
  </g>
</svg>
