<svg xmlns="http://www.w3.org/2000/svg" xmlns:xlink="http://www.w3.org/1999/xlink" width="20" height="20" viewBox="0 0 20 20">
  <defs>
    <clipPath id="clip-path">
      <rect id="Rectangle_400" data-name="Rectangle 400" width="20" height="20" transform="translate(925 764)" fill="#fff" stroke="#707070" stroke-width="1" opacity="0.666"/>
    </clipPath>
  </defs>
  <g id="Mask_Group_1" data-name="Mask Group 1" transform="translate(-925 -764)" opacity="0.803" clip-path="url(#clip-path)">
    <g id="united-states" transform="translate(926.096 764)">
      <path id="Path_362" data-name="Path 362" d="M1.041,13.264a1.947,1.947,0,0,0,.1.583h17.6a1.947,1.947,0,0,0,.1-.583v-.958H1.041v.957m3.709,3.66H15.141l2.309-1.541H2.44l2.31,1.541m4.206,2.8a1.937,1.937,0,0,0,1.977,0l1.9-1.267H7.057l1.9,1.267M12.833,1.537,10.934.272A1.8,1.8,0,0,0,9.945,0V1.537h2.888M9.945,10.769h8.9V9.231h-8.9v1.537m0-3.076h8.9V6.736a1.947,1.947,0,0,0-.1-.583h-8.8V7.693m0-3.076h7.5L15.141,3.076h-5.2V4.617" transform="translate(-1.041)" fill="#bc183e"/>
      <path id="Path_363" data-name="Path 363" d="M2.03,15.033l.41.273H17.45l.41-.273a2.5,2.5,0,0,0,.886-1.262H1.144a2.486,2.486,0,0,0,.886,1.262m5.027,3.352h5.776l2.307-1.539H4.75l2.306,1.538M18.849,12.23V10.692H1.041V12.23H18.849m-8.9-6.154h8.8a2.491,2.491,0,0,0-.886-1.262l-.41-.273h-7.5V6.076M9.945,3h5.2L12.833,1.461H9.945V3m0,6.156h8.9V7.616h-8.9V9.154" transform="translate(-1.041 0.077)" fill="#fff"/>
      <path id="Path_364" data-name="Path 364" d="M1.041,6.507V6.54l0-.031Zm0,0,2.466-2.8L3.226,3.9h.22Zm0,0" transform="translate(-1.041 0.195)" fill="#212d5d"/>
      <path id="Path_365" data-name="Path 365" d="M10.172,1.086l.142.43L9.948,1.25l-.366.266.139-.43L9.354.821h.454l.139-.43.139.43h.451Zm0,2.181.142.429L9.948,3.43,9.581,3.7l.139-.429L9.354,3h.454l.139-.43.139.43h.451Zm0,2.182.142.429-.366-.266-.366.266.139-.429-.366-.266h.454l.139-.432.139.432h.451Zm0,2.18.142.43-.366-.266-.366.266.139-.43-.366-.266h.454l.139-.429.139.429h.451Zm.142,2.61-.366-.266-.366.266.139-.43-.366-.266h.454l.139-.43.139.43h.451l-.366.266ZM8.9,2.175l.139.43-.364-.264L8.309,2.6l.139-.43-.366-.263h.451l.142-.43.139.43h.452Zm0,2.183.139.429-.364-.266-.366.266.139-.429-.366-.266h.451l.142-.43.139.43h.452Zm0,2.18.139.429L8.676,6.7l-.366.266.139-.429-.366-.266h.451l.142-.429.139.429h.452Zm.139,2.612-.364-.266-.366.266.139-.43-.366-.266h.451l.142-.429.139.429h.452L8.9,8.721ZM7.628,3.267l.139.429L7.4,3.43,7.038,3.7l.139-.429L6.81,3h.452l.139-.43L7.543,3h.452Zm0,2.182.139.429L7.4,5.612l-.364.266.139-.429L6.81,5.183h.452L7.4,4.751l.141.432h.452Zm0,2.18.139.43L7.4,7.793l-.364.266.139-.43L6.81,7.363h.452L7.4,6.934l.141.429h.452Zm.139,2.61L7.4,9.973l-.364.266.139-.43L6.81,9.544h.452l.139-.43.141.43h.452l-.366.266ZM6.356,4.358l.139.429L6.13,4.521l-.364.266L5.9,4.358l-.366-.266H5.99l.139-.43.139.43h.454Zm0,2.18.139.429L6.13,6.7l-.364.266L5.9,6.538l-.366-.266H5.99l.139-.429.139.429h.454ZM6.5,9.151,6.13,8.884l-.364.266.139-.43-.366-.266H5.99l.139-.429.139.429h.454l-.366.266Zm-1.411-3.7.139.429-.366-.266-.366.266.142-.429-.366-.266h.452l.139-.432L5,5.183h.452Zm0,2.18.139.43-.366-.266-.366.266.142-.43-.366-.266h.452l.139-.429L5,7.363h.452Zm.139,2.61-.366-.266-.366.266.142-.43-.366-.266h.452l.139-.43L5,9.544h.452l-.364.266Zm-1.411-3.7.139.429L3.585,6.7l-.366.266.139-.429-.364-.266h.452l.139-.429.139.429h.452ZM3.951,9.15l-.366-.266-.366.266.139-.43-.364-.266h.452l.139-.429.139.429h.452l-.364.266Zm-1.414-3.7.142.429-.366-.266-.366.266.139-.429-.364-.266h.451l.139-.432.139.432H2.9Zm0,2.18.142.43-.366-.266-.366.266.139-.43-.364-.266h.451l.139-.429.139.429H2.9Zm.142,2.61-.366-.266-.366.266.139-.43-.364-.266h.451l.139-.43.139.43H2.9l-.366.266Zm8.362-9.9L10.934.271a1.94,1.94,0,0,0-1.977,0l-1.309.874.12.371-.325-.237L6.5,1.912h.225l-.366.263L6.5,2.6,6.13,2.341,5.766,2.6l.085-.261-.879.584L5,3h.452l-.364.266.139.429L4.857,3.43,4.491,3.7l.142-.429-.081-.059-.916.61.087.274h.452l-.364.266.139.429-.366-.266-.366.266.139-.429L3.1,4.172,2.03,4.89a2.467,2.467,0,0,0-.886,1.267l.037.114h.451l-.366.266.142.429L1.044,6.7l0,.031V8.027l.139.427h.451l-.366.266.142.43-.366-.266v1.884h10V.344" transform="translate(-1.041)" fill="#212d5d"/>
      <path id="Path_366" data-name="Path 366" d="M7.768,1.5l-.12-.371-.2.134Zm0,0M9.948.371,9.808.8H9.354l.366.266-.139.43.366-.266.366.266-.142-.43L10.538.8h-.451L9.948.371M5.766,2.585l.364-.264.366.264-.139-.43.366-.263H6.5l-.646.432-.085.261M8.676,1.462l-.142.43H8.083l.366.263-.139.43.366-.264.364.264L8.9,2.155l.366-.263H8.814l-.139-.43M4.633,3.247l-.142.429.366-.266.366.266-.139-.429.364-.266H5l-.024-.073-.42.281.081.059m2.769-.7-.139.43H6.81l.366.266-.139.429L7.4,3.41l.366.266-.139-.429.366-.266H7.543L7.4,2.551m2.546,0-.139.43H9.354l.366.266-.139.429.366-.266.366.266-.142-.429.366-.266h-.451l-.139-.43m-6.5,1.521h-.22L3.1,4.153l.254.186-.139.429L3.585,4.5l.366.266-.139-.429.364-.266H3.725L3.637,3.8l-.13.088-.061.186M6.13,3.643l-.139.429H5.538l.366.266-.139.429L6.13,4.5l.366.266-.139-.429.366-.266H6.268l-.139-.43m2.546,0-.142.429H8.083l.366.266-.139.429L8.676,4.5l.364.266L8.9,4.339l.366-.266H8.814l-.139-.43M2.314,4.732l-.14.432H1.723l.364.266-.139.429.366-.266.366.266L2.538,5.43,2.9,5.164H2.453l-.139-.432m2.544,0-.139.432H4.266l.366.266-.142.429.366-.266.366.266L5.085,5.43l.364-.266H5l-.139-.432m2.544,0-.139.432H6.81l.366.266-.139.429L7.4,5.593l.366.266L7.628,5.43l.366-.266H7.543L7.4,4.732m2.546,0-.139.432H9.354l.366.266-.139.429.366-.266.366.266-.142-.429.366-.266h-.451l-.139-.432M1.408,6.948l-.142-.429.366-.266H1.181l-.037-.114a2.042,2.042,0,0,0-.1.547l.364.263M3.585,5.823l-.139.429H2.995l.364.266-.139.429.366-.266.366.266-.139-.429.364-.266H3.725l-.139-.429m2.544,0-.139.429H5.538l.366.266-.139.429.364-.266.366.266-.139-.429.366-.266H6.268L6.13,5.823m2.546,0-.142.429H8.083l.366.266-.139.429.366-.266.364.266L8.9,6.519l.366-.266H8.814l-.139-.429M2.314,6.914l-.14.429H1.723l.364.266-.139.43.366-.266.366.266-.142-.43L2.9,7.344H2.453l-.139-.429m2.544,0-.139.429H4.266l.366.266-.142.43.366-.266.366.266-.139-.43.364-.266H5l-.139-.429m2.544,0-.139.429H6.81l.366.266-.139.43L7.4,7.774l.366.266-.139-.43.366-.266H7.543L7.4,6.914m2.546,0-.139.429H9.354l.366.266-.139.43.366-.266.366.266-.142-.43.366-.266h-.451l-.139-.429M1.266,8.7l.366-.266H1.181l-.139-.427v.856l.366.267L1.266,8.7m2.459-.266-.139-.429-.139.429H2.995l.364.266-.139.43.366-.266.366.266L3.812,8.7l.364-.266H3.725m2.544,0L6.13,8.005l-.139.429H5.538L5.9,8.7l-.139.43.364-.266.366.266L6.356,8.7l.366-.266H6.268m2.546,0-.139-.429-.142.429H8.083l.366.266-.139.43.366-.266.364.266L8.9,8.7l.366-.266H8.814M2.453,9.524l-.139-.43-.139.43H1.723l.364.266-.139.43.366-.266.366.266-.142-.43L2.9,9.524H2.453M5,9.524l-.139-.43-.139.43H4.266l.366.266-.142.43.366-.266.366.266-.139-.43.364-.266H5m2.546,0L7.4,9.094l-.139.43H6.81l.366.266-.139.43L7.4,9.954l.366.266-.139-.43.366-.266H7.543m2.544,0-.139-.43-.139.43H9.354l.366.266-.139.43.366-.266.366.266-.142-.43.366-.266h-.451" transform="translate(-1.041 0.02)" fill="#fff"/>
    </g>
  </g>
</svg>
